<svg width="100" height="100" viewBox="0 0 100 100" fill="none" xmlns="http://www.w3.org/2000/svg">
<path d="M17.331 86.5433C14.7783 84.048 3.51631 72.4293 2.35325 55.6104C0.721423 32.0172 20.2898 17.2821 25.6572 13.2339C37.9643 3.97239 67.5471 -10.0049 86.3022 10.8741C101.324 27.5974 100.144 58.3551 90.8563 75.9518C75.5507 104.947 37.5874 106.343 17.331 86.5433Z" fill="#EFF5F9"/>
<path d="M85.8982 45.3839H79.5411C79.4258 45.3839 79.3323 45.5028 79.3323 45.6494V48.9582C79.3323 49.1048 79.4258 49.2236 79.5411 49.2236H85.8982C86.0135 49.2236 86.107 49.1048 86.107 48.9582V45.6494C86.107 45.5028 86.0135 45.3839 85.8982 45.3839Z" stroke="#C9EFFB" stroke-width="2" stroke-miterlimit="10"/>
<path d="M85.8982 53.05H79.5411C79.4258 53.05 79.3323 53.1689 79.3323 53.3155V56.6243C79.3323 56.7709 79.4258 56.8898 79.5411 56.8898H85.8982C86.0135 56.8898 86.107 56.7709 86.107 56.6243V53.3155C86.107 53.1689 86.0135 53.05 85.8982 53.05Z" stroke="#C9EFFB" stroke-width="2" stroke-miterlimit="10"/>
<path d="M89.2851 49.2236H82.9279C82.8126 49.2236 82.7191 49.3425 82.7191 49.4891V52.7979C82.7191 52.9445 82.8126 53.0634 82.9279 53.0634H89.2851C89.4004 53.0634 89.4939 52.9445 89.4939 52.7979V49.4891C89.4939 49.3425 89.4004 49.2236 89.2851 49.2236Z" fill="#C9EFFB"/>
<path d="M82.5113 49.2236H76.1541C76.0388 49.2236 75.9453 49.3425 75.9453 49.4891V52.7979C75.9453 52.9445 76.0388 53.0634 76.1541 53.0634H82.5113C82.6266 53.0634 82.7201 52.9445 82.7201 52.7979V49.4891C82.7201 49.3425 82.6266 49.2236 82.5113 49.2236Z" fill="#C9EFFB"/>
<path d="M11.5857 64.3623H5.22858C5.11326 64.3623 5.01978 64.4812 5.01978 64.6278V67.9366C5.01978 68.0832 5.11326 68.202 5.22858 68.202H11.5857C11.701 68.202 11.7945 68.0832 11.7945 67.9366V64.6278C11.7945 64.4812 11.701 64.3623 11.5857 64.3623Z" stroke="#C9EFFB" stroke-width="2" stroke-miterlimit="10"/>
<path d="M14.9726 72.0284H8.61542C8.5001 72.0284 8.40662 72.1473 8.40662 72.2939V75.6027C8.40662 75.7493 8.5001 75.8682 8.61542 75.8682H14.9726C15.0879 75.8682 15.1814 75.7493 15.1814 75.6027V72.2939C15.1814 72.1473 15.0879 72.0284 14.9726 72.0284Z" stroke="#C9EFFB" stroke-width="2" stroke-miterlimit="10"/>
<path d="M16.3809 68.202H10.0237C9.90843 68.202 9.81494 68.3209 9.81494 68.4675V71.7763C9.81494 71.9229 9.90843 72.0418 10.0237 72.0418H16.3809C16.4962 72.0418 16.5897 71.9229 16.5897 71.7763V68.4675C16.5897 68.3209 16.4962 68.202 16.3809 68.202Z" fill="#C9EFFB"/>
<path d="M9.60623 68.202H3.24909C3.13377 68.202 3.04028 68.3209 3.04028 68.4675V71.7763C3.04028 71.9229 3.13377 72.0418 3.24909 72.0418H9.60623C9.72156 72.0418 9.81504 71.9229 9.81504 71.7763V68.4675C9.81504 68.3209 9.72156 68.202 9.60623 68.202Z" fill="#C9EFFB"/>
<path d="M50.9877 13.2061H44.6305C44.5152 13.2061 44.4217 13.3249 44.4217 13.4715V16.7803C44.4217 16.9269 44.5152 17.0458 44.6305 17.0458H50.9877C51.103 17.0458 51.1965 16.9269 51.1965 16.7803V13.4715C51.1965 13.3249 51.103 13.2061 50.9877 13.2061Z" fill="#C9EFFB"/>
<path d="M53.2762 20.8855H46.919C46.8037 20.8855 46.7102 21.0043 46.7102 21.1509V24.4598C46.7102 24.6064 46.8037 24.7252 46.919 24.7252H53.2762C53.3915 24.7252 53.485 24.6064 53.485 24.4598V21.1509C53.485 21.0043 53.3915 20.8855 53.2762 20.8855Z" fill="#C9EFFB"/>
<path d="M55.7819 17.0458H49.4247C49.3094 17.0458 49.2159 17.1646 49.2159 17.3112V20.6201C49.2159 20.7667 49.3094 20.8855 49.4247 20.8855H55.7819C55.8972 20.8855 55.9907 20.7667 55.9907 20.6201V17.3112C55.9907 17.1646 55.8972 17.0458 55.7819 17.0458Z" stroke="#C9EFFB" stroke-width="2" stroke-miterlimit="10"/>
<path d="M49.0082 17.0458H42.6511C42.5357 17.0458 42.4423 17.1646 42.4423 17.3112V20.6201C42.4423 20.7667 42.5357 20.8855 42.6511 20.8855H49.0082C49.1235 20.8855 49.217 20.7667 49.217 20.6201V17.3112C49.217 17.1646 49.1235 17.0458 49.0082 17.0458Z" stroke="#C9EFFB" stroke-width="2" stroke-miterlimit="10"/>
<path d="M15.6543 18.9318H7.45548C7.39006 18.9325 7.32518 18.9167 7.26464 18.8852C7.20409 18.8537 7.14909 18.8072 7.10283 18.7484C7.05657 18.6896 7.01999 18.6196 6.99521 18.5427C6.97043 18.4657 6.95796 18.3832 6.95851 18.3001V7.87983C6.9581 7.79672 6.97067 7.71433 6.9955 7.63744C7.02032 7.56055 7.05691 7.49069 7.10314 7.43192C7.14937 7.37315 7.20432 7.32663 7.2648 7.29507C7.32529 7.26351 7.3901 7.24753 7.45548 7.24806H15.6522C15.7176 7.24753 15.7824 7.26351 15.8429 7.29507C15.9034 7.32663 15.9583 7.37315 16.0045 7.43192C16.0508 7.49069 16.0874 7.56055 16.1122 7.63744C16.137 7.71433 16.1496 7.79672 16.1492 7.87983V18.3001C16.1465 18.4661 16.0936 18.6245 16.0014 18.7421C15.9092 18.8598 15.7849 18.9278 15.6543 18.9318Z" fill="#A04833"/>
<path d="M15.8631 19.2291H7.23934C7.10089 19.2291 6.96812 19.1592 6.87022 19.0347C6.77232 18.9103 6.71732 18.7415 6.71732 18.5655V7.6024C6.71648 7.51495 6.72941 7.42817 6.75535 7.34718C6.78128 7.26618 6.8197 7.1926 6.86835 7.13076C6.91699 7.06892 6.97487 7.02008 7.03858 6.98711C7.1023 6.95414 7.17056 6.9377 7.23934 6.93877H15.8631C16.0015 6.93877 16.1343 7.00869 16.2322 7.13314C16.3301 7.2576 16.3851 7.42639 16.3851 7.6024V18.5655C16.3851 18.7415 16.3301 18.9103 16.2322 19.0347C16.1343 19.1592 16.0015 19.2291 15.8631 19.2291ZM7.23934 7.6024V18.5655H15.8673V7.60372L7.23934 7.6024Z" fill="#FFC065"/>
<path d="M9.53625 15.6588C9.64203 15.3718 9.76055 15.0926 9.89123 14.8227C10.0687 14.6236 10.2253 14.3979 10.4028 14.1856L11.4155 12.8981L11.3529 13.084V11.4913C11.3529 11.2258 11.3424 10.9604 11.3633 10.6949C11.426 10.4295 11.4886 10.164 11.5617 9.89856C11.642 10.158 11.7082 10.424 11.7601 10.6949C11.7705 10.9604 11.7601 11.2258 11.7705 11.4913V13.2034L11.7079 13.283L10.6951 14.5705C10.5281 14.7828 10.3506 14.9952 10.194 15.2208C9.98519 15.3668 9.76594 15.5261 9.53625 15.6588Z" fill="#FFC065"/>
<path d="M97.0704 5.28638H46.1277V40.566H97.0704V5.28638Z" fill="#CC7829"/>
<path d="M98.3943 40.7067H44.9813V41.7791H98.3943V40.7067Z" fill="#BED5E6"/>
<path d="M79.824 16.6755H76.0957V12.5053C76.0957 11.9266 76.2711 11.9983 76.5854 11.5762L77.0823 10.9126H78.8373L79.3333 11.5762C79.6465 11.9943 79.824 11.9226 79.824 12.5053V16.6755Z" fill="#E3EAF3"/>
<path d="M79.0598 9.76453H76.86C76.6097 9.76453 76.4069 10.0224 76.4069 10.3406V10.3445C76.4069 10.6627 76.6097 10.9206 76.86 10.9206H79.0598C79.31 10.9206 79.5129 10.6627 79.5129 10.3445V10.3406C79.5129 10.0224 79.31 9.76453 79.0598 9.76453Z" fill="#E3EAF3"/>
<path d="M79.8229 13.4318H76.0957V14.9262H79.8229V13.4318Z" fill="#EF3E3B"/>
<path d="M84.0168 16.6755H80.2896V12.5053C80.2896 11.9266 80.4649 11.9983 80.7792 11.5762L81.2751 10.9126H83.0312L83.5271 11.5762C83.8403 11.9943 84.0168 11.9226 84.0168 12.5053V16.6755Z" fill="#E3EAF3"/>
<path d="M83.2526 9.76453H81.0528C80.8026 9.76453 80.5997 10.0224 80.5997 10.3406V10.3445C80.5997 10.6627 80.8026 10.9206 81.0528 10.9206H83.2526C83.5029 10.9206 83.7057 10.6627 83.7057 10.3445V10.3406C83.7057 10.0224 83.5029 9.76453 83.2526 9.76453Z" fill="#E3EAF3"/>
<path d="M84.0168 13.4318H80.2896V14.9262H84.0168V13.4318Z" fill="#EF3E3B"/>
<path d="M91.2249 28.841H87.4977V24.6708C87.4977 24.0935 87.6731 24.1638 87.9873 23.7417L88.4833 23.0781H90.2383L90.7352 23.7417C91.0485 24.1585 91.2249 24.0882 91.2249 24.6708V28.841Z" fill="#E3EAF3"/>
<path d="M90.4606 21.9314H88.2608C88.0106 21.9314 87.8077 22.1893 87.8077 22.5074V22.5114C87.8077 22.8295 88.0106 23.0874 88.2608 23.0874H90.4606C90.7109 23.0874 90.9138 22.8295 90.9138 22.5114V22.5074C90.9138 22.1893 90.7109 21.9314 90.4606 21.9314Z" fill="#E3EAF3"/>
<path d="M91.2249 25.5973H87.4977V27.0918H91.2249V25.5973Z" fill="#EF3E3B"/>
<path d="M95.4188 28.841H91.6906V24.6708C91.6906 24.0935 91.866 24.1638 92.1802 23.7417L92.6772 23.0781H94.4322L94.9281 23.7417C95.2413 24.1585 95.4188 24.0882 95.4188 24.6708V28.841Z" fill="#54A4CC"/>
<path d="M94.6545 21.9314H92.4547C92.2045 21.9314 92.0016 22.1893 92.0016 22.5074V22.5114C92.0016 22.8295 92.2045 23.0874 92.4547 23.0874H94.6545C94.9047 23.0874 95.1076 22.8295 95.1076 22.5114V22.5074C95.1076 22.1893 94.9047 21.9314 94.6545 21.9314Z" fill="#E3EAF3"/>
<path d="M59.7179 28.841H55.9907V24.6708C55.9907 24.0935 56.1661 24.1638 56.4804 23.7417L56.9773 23.0781H58.7324L59.2283 23.7417C59.5415 24.1585 59.7179 24.0882 59.7179 24.6708V28.841Z" fill="#E3EAF3"/>
<path d="M58.9547 21.9314H56.7549C56.5046 21.9314 56.3018 22.1893 56.3018 22.5074V22.5114C56.3018 22.8295 56.5046 23.0874 56.7549 23.0874H58.9547C59.2049 23.0874 59.4078 22.8295 59.4078 22.5114V22.5074C59.4078 22.1893 59.2049 21.9314 58.9547 21.9314Z" fill="#E3EAF3"/>
<path d="M59.7179 25.5973H55.9907V27.0918H59.7179V25.5973Z" fill="#54A4CC"/>
<path d="M63.9118 28.841H60.1846V24.6708C60.1846 24.0935 60.36 24.1638 60.6742 23.7417L61.1701 23.0781H62.9252L63.4221 23.7417C63.7353 24.1585 63.9118 24.0882 63.9118 24.6708V28.841Z" fill="#E3EAF3"/>
<path d="M63.1475 21.9314H60.9477C60.6975 21.9314 60.4946 22.1893 60.4946 22.5074V22.5114C60.4946 22.8295 60.6975 23.0874 60.9477 23.0874H63.1475C63.3978 23.0874 63.6006 22.8295 63.6006 22.5114V22.5074C63.6006 22.1893 63.3978 21.9314 63.1475 21.9314Z" fill="#E3EAF3"/>
<path d="M63.9118 25.5973H60.1846V27.0918H63.9118V25.5973Z" fill="#EF3E3B"/>
<path d="M52.987 40.7253H49.2598V36.5551C49.2598 35.9777 49.4352 36.0481 49.7494 35.626L50.2453 34.9624H52.0004L52.4973 35.626C52.8105 36.0428 52.987 35.9724 52.987 36.5551V40.7253Z" fill="#E3EAF3"/>
<path d="M52.2227 33.8143H50.0229C49.7727 33.8143 49.5698 34.0722 49.5698 34.3904V34.3943C49.5698 34.7125 49.7727 34.9704 50.0229 34.9704H52.2227C52.473 34.9704 52.6758 34.7125 52.6758 34.3943V34.3904C52.6758 34.0722 52.473 33.8143 52.2227 33.8143Z" fill="#E3EAF3"/>
<path d="M52.987 37.4814H49.2598V38.9759H52.987V37.4814Z" fill="#54A4CC"/>
<path d="M57.1799 40.7253H53.4526V36.5551C53.4526 35.9777 53.628 36.0481 53.9423 35.626L54.4393 34.9624H56.1943L56.6902 35.626C57.0034 36.0428 57.1799 35.9724 57.1799 36.5551V40.7253Z" fill="#E3EAF3"/>
<path d="M56.4167 33.8143H54.2169C53.9667 33.8143 53.7638 34.0722 53.7638 34.3904V34.3943C53.7638 34.7125 53.9667 34.9704 54.2169 34.9704H56.4167C56.6669 34.9704 56.8698 34.7125 56.8698 34.3943V34.3904C56.8698 34.0722 56.6669 33.8143 56.4167 33.8143Z" fill="#E3EAF3"/>
<path d="M57.1799 37.4814H53.4526V38.9759H57.1799V37.4814Z" fill="#EF3E3B"/>
<path d="M95.8625 16.6755H90.5275V10.7122C90.5275 9.88533 90.7791 9.98753 91.2291 9.38496L91.939 8.44128H94.452L95.1619 9.38496C95.6119 9.98355 95.8625 9.88135 95.8625 10.7122V16.6755Z" fill="#54A4CC"/>
<path d="M94.7683 6.78345H91.6216C91.2629 6.78345 90.9722 7.15306 90.9722 7.609V7.61298C90.9722 8.06892 91.2629 8.43853 91.6216 8.43853H94.7683C95.1269 8.43853 95.4177 8.06892 95.4177 7.61298V7.609C95.4177 7.15306 95.1269 6.78345 94.7683 6.78345Z" fill="#E3EAF3"/>
<path d="M95.8625 12.0328H90.5275V14.1724H95.8625V12.0328Z" fill="#EF3E3B"/>
<path d="M54.1501 28.8411H48.8151V22.8685C48.8151 22.0416 49.0656 22.1438 49.5156 21.5412L50.2266 20.5975H52.7386L53.4485 21.5412C53.8985 22.1398 54.1501 22.0376 54.1501 22.8685V28.8411Z" fill="#E3EAF3"/>
<path d="M53.0559 18.9504H49.9092C49.5505 18.9504 49.2598 19.32 49.2598 19.776V19.78C49.2598 20.2359 49.5505 20.6055 49.9092 20.6055H53.0559C53.4145 20.6055 53.7053 20.2359 53.7053 19.78V19.776C53.7053 19.32 53.4145 18.9504 53.0559 18.9504Z" fill="#54A4CC"/>
<path d="M54.1501 24.1984H48.8151V26.3379H54.1501V24.1984Z" fill="#EF3E3B"/>
<path d="M86.225 28.8411H80.8889V22.8685C80.8889 22.0416 81.1405 22.1438 81.5905 21.5412L82.3005 20.5975H84.8187L85.5286 21.5412C85.9786 22.1398 86.2302 22.0376 86.2302 22.8685L86.225 28.8411Z" fill="#E3EAF3"/>
<path d="M85.1297 18.9504H81.983C81.6244 18.9504 81.3336 19.32 81.3336 19.776V19.78C81.3336 20.2359 81.6244 20.6055 81.983 20.6055H85.1297C85.4884 20.6055 85.7791 20.2359 85.7791 19.78V19.776C85.7791 19.32 85.4884 18.9504 85.1297 18.9504Z" fill="#54A4CC"/>
<path d="M86.224 24.1984H80.8889V26.3379H86.224V24.1984Z" fill="#EF3E3B"/>
<path d="M75.5883 40.4133H70.2533V34.4407C70.2533 33.6125 70.5039 33.7147 70.9538 33.1135L71.6648 32.1698H74.1768L74.8878 33.1135C75.3378 33.7107 75.5883 33.6085 75.5883 34.4407V40.4133Z" fill="#E3EAF3"/>
<path d="M74.4941 30.5227H71.3474C70.9887 30.5227 70.698 30.8923 70.698 31.3483V31.3522C70.698 31.8082 70.9887 32.1778 71.3474 32.1778H74.4941C74.8528 32.1778 75.1435 31.8082 75.1435 31.3522V31.3483C75.1435 30.8923 74.8528 30.5227 74.4941 30.5227Z" fill="#E3EAF3"/>
<path d="M75.5883 35.7706H70.2533V37.9102H75.5883V35.7706Z" fill="#EF3E3B"/>
<path d="M92.0465 40.7252H86.7114V34.7526C86.7114 33.9257 86.963 34.0266 87.412 33.4254L88.123 32.4817H90.6349L91.3459 33.4254C91.7959 34.0226 92.0465 33.9218 92.0465 34.7526V40.7252Z" fill="#E3EAF3"/>
<path d="M90.9347 30.8346H87.7879C87.4293 30.8346 87.1385 31.2042 87.1385 31.6601V31.6641C87.1385 32.1201 87.4293 32.4897 87.7879 32.4897H90.9347C91.2933 32.4897 91.5841 32.1201 91.5841 31.6641V31.6601C91.5841 31.2042 91.2933 30.8346 90.9347 30.8346Z" fill="#EF3E3B"/>
<path d="M92.0465 35.537H86.7114V37.6765H92.0465V35.537Z" fill="#54A4CC"/>
<path d="M89.379 16.6756H85.8877V7.25342H87.175L87.6333 11.9652L88.1073 7.25342H89.379V16.6756Z" fill="#E3EAF3"/>
<path d="M86.7908 13.084C87.0197 13.084 87.2053 12.8481 87.2053 12.5571C87.2053 12.2661 87.0197 12.0302 86.7908 12.0302C86.5619 12.0302 86.3763 12.2661 86.3763 12.5571C86.3763 12.8481 86.5619 13.084 86.7908 13.084Z" fill="#ABBCCA"/>
<path d="M86.7908 14.6992C87.0197 14.6992 87.2053 14.4633 87.2053 14.1723C87.2053 13.8813 87.0197 13.6454 86.7908 13.6454C86.5619 13.6454 86.3763 13.8813 86.3763 14.1723C86.3763 14.4633 86.5619 14.6992 86.7908 14.6992Z" fill="#ABBCCA"/>
<path d="M86.7908 16.353C87.0197 16.353 87.2053 16.1171 87.2053 15.8261C87.2053 15.5351 87.0197 15.2992 86.7908 15.2992C86.5619 15.2992 86.3763 15.5351 86.3763 15.8261C86.3763 16.1171 86.5619 16.353 86.7908 16.353Z" fill="#ABBCCA"/>
<path d="M88.5062 13.084C88.7351 13.084 88.9206 12.8481 88.9206 12.5571C88.9206 12.2661 88.7351 12.0302 88.5062 12.0302C88.2772 12.0302 88.0917 12.2661 88.0917 12.5571C88.0917 12.8481 88.2772 13.084 88.5062 13.084Z" fill="#ABBCCA"/>
<path d="M88.5062 14.6992C88.7351 14.6992 88.9206 14.4633 88.9206 14.1723C88.9206 13.8813 88.7351 13.6454 88.5062 13.6454C88.2772 13.6454 88.0917 13.8813 88.0917 14.1723C88.0917 14.4633 88.2772 14.6992 88.5062 14.6992Z" fill="#ABBCCA"/>
<path d="M88.5062 16.353C88.7351 16.353 88.9206 16.1171 88.9206 15.8261C88.9206 15.5351 88.7351 15.2992 88.5062 15.2992C88.2772 15.2992 88.0917 15.5351 88.0917 15.8261C88.0917 16.1171 88.2772 16.353 88.5062 16.353Z" fill="#ABBCCA"/>
<path d="M69.44 28.8411H65.9487V19.4203H67.236L67.6944 24.1307L68.1673 19.4203H69.44V28.8411Z" fill="#E3EAF3"/>
<path d="M66.8508 25.2509C67.0797 25.2509 67.2652 25.0149 67.2652 24.7239C67.2652 24.4329 67.0797 24.197 66.8508 24.197C66.6219 24.197 66.4363 24.4329 66.4363 24.7239C66.4363 25.0149 66.6219 25.2509 66.8508 25.2509Z" fill="#ABBCCA"/>
<path d="M66.8508 26.8647C67.0797 26.8647 67.2652 26.6288 67.2652 26.3378C67.2652 26.0468 67.0797 25.8109 66.8508 25.8109C66.6219 25.8109 66.4363 26.0468 66.4363 26.3378C66.4363 26.6288 66.6219 26.8647 66.8508 26.8647Z" fill="#ABBCCA"/>
<path d="M66.8508 28.5199C67.0797 28.5199 67.2652 28.284 67.2652 27.993C67.2652 27.702 67.0797 27.4661 66.8508 27.4661C66.6219 27.4661 66.4363 27.702 66.4363 27.993C66.4363 28.284 66.6219 28.5199 66.8508 28.5199Z" fill="#ABBCCA"/>
<path d="M68.5672 25.2509C68.7961 25.2509 68.9817 25.0149 68.9817 24.7239C68.9817 24.4329 68.7961 24.197 68.5672 24.197C68.3383 24.197 68.1527 24.4329 68.1527 24.7239C68.1527 25.0149 68.3383 25.2509 68.5672 25.2509Z" fill="#ABBCCA"/>
<path d="M68.5672 26.8647C68.7961 26.8647 68.9817 26.6288 68.9817 26.3378C68.9817 26.0468 68.7961 25.8109 68.5672 25.8109C68.3383 25.8109 68.1527 26.0468 68.1527 26.3378C68.1527 26.6288 68.3383 26.8647 68.5672 26.8647Z" fill="#ABBCCA"/>
<path d="M68.5672 28.5199C68.7961 28.5199 68.9817 28.284 68.9817 27.993C68.9817 27.702 68.7961 27.4661 68.5672 27.4661C68.3383 27.4661 68.1527 27.702 68.1527 27.993C68.1527 28.284 68.3383 28.5199 68.5672 28.5199Z" fill="#ABBCCA"/>
<path d="M81.2585 40.7253H77.7672V31.3044H79.0545L79.5128 36.0149L79.9858 31.3044H81.2585V40.7253Z" fill="#E3EAF3"/>
<path d="M78.6692 37.135C78.8982 37.135 79.0837 36.8991 79.0837 36.6081C79.0837 36.3171 78.8982 36.0812 78.6692 36.0812C78.4403 36.0812 78.2548 36.3171 78.2548 36.6081C78.2548 36.8991 78.4403 37.135 78.6692 37.135Z" fill="#ABBCCA"/>
<path d="M78.6692 38.749C78.8982 38.749 79.0837 38.5131 79.0837 38.2221C79.0837 37.9311 78.8982 37.6952 78.6692 37.6952C78.4403 37.6952 78.2548 37.9311 78.2548 38.2221C78.2548 38.5131 78.4403 38.749 78.6692 38.749Z" fill="#ABBCCA"/>
<path d="M78.6692 40.4041C78.8982 40.4041 79.0837 40.1681 79.0837 39.8771C79.0837 39.5861 78.8982 39.3502 78.6692 39.3502C78.4403 39.3502 78.2548 39.5861 78.2548 39.8771C78.2548 40.1681 78.4403 40.4041 78.6692 40.4041Z" fill="#ABBCCA"/>
<path d="M80.3857 37.135C80.6146 37.135 80.8002 36.8991 80.8002 36.6081C80.8002 36.3171 80.6146 36.0812 80.3857 36.0812C80.1568 36.0812 79.9712 36.3171 79.9712 36.6081C79.9712 36.8991 80.1568 37.135 80.3857 37.135Z" fill="#ABBCCA"/>
<path d="M80.3857 38.749C80.6146 38.749 80.8002 38.5131 80.8002 38.2221C80.8002 37.9311 80.6146 37.6952 80.3857 37.6952C80.1568 37.6952 79.9712 37.9311 79.9712 38.2221C79.9712 38.5131 80.1568 38.749 80.3857 38.749Z" fill="#ABBCCA"/>
<path d="M80.3857 40.4041C80.6146 40.4041 80.8002 40.1681 80.8002 39.8771C80.8002 39.5861 80.6146 39.3502 80.3857 39.3502C80.1568 39.3502 79.9712 39.5861 79.9712 39.8771C79.9712 40.1681 80.1568 40.4041 80.3857 40.4041Z" fill="#ABBCCA"/>
<path d="M85.303 32.0941H81.8118V40.7252H85.303V32.0941Z" fill="#BED5E6"/>
<path d="M82.7139 37.135C82.9428 37.135 83.1284 36.8991 83.1284 36.6081C83.1284 36.3171 82.9428 36.0812 82.7139 36.0812C82.485 36.0812 82.2994 36.3171 82.2994 36.6081C82.2994 36.8991 82.485 37.135 82.7139 37.135Z" fill="#EF3E3B"/>
<path d="M82.7139 38.749C82.9428 38.749 83.1284 38.5131 83.1284 38.2221C83.1284 37.9311 82.9428 37.6952 82.7139 37.6952C82.485 37.6952 82.2994 37.9311 82.2994 38.2221C82.2994 38.5131 82.485 38.749 82.7139 38.749Z" fill="#EF3E3B"/>
<path d="M82.7139 40.4041C82.9428 40.4041 83.1284 40.1681 83.1284 39.8771C83.1284 39.5861 82.9428 39.3502 82.7139 39.3502C82.485 39.3502 82.2994 39.5861 82.2994 39.8771C82.2994 40.1681 82.485 40.4041 82.7139 40.4041Z" fill="#EF3E3B"/>
<path d="M84.4293 37.135C84.6582 37.135 84.8437 36.8991 84.8437 36.6081C84.8437 36.3171 84.6582 36.0812 84.4293 36.0812C84.2003 36.0812 84.0148 36.3171 84.0148 36.6081C84.0148 36.8991 84.2003 37.135 84.4293 37.135Z" fill="#EF3E3B"/>
<path d="M84.4293 38.749C84.6582 38.749 84.8437 38.5131 84.8437 38.2221C84.8437 37.9311 84.6582 37.6952 84.4293 37.6952C84.2003 37.6952 84.0148 37.9311 84.0148 38.2221C84.0148 38.5131 84.2003 38.749 84.4293 38.749Z" fill="#EF3E3B"/>
<path d="M84.4293 40.4041C84.6582 40.4041 84.8437 40.1681 84.8437 39.8771C84.8437 39.5861 84.6582 39.3502 84.4293 39.3502C84.2003 39.3502 84.0148 39.5861 84.0148 39.8771C84.0148 40.1681 84.2003 40.4041 84.4293 40.4041Z" fill="#EF3E3B"/>
<path d="M82.6993 33.813C82.9282 33.813 83.1138 33.5771 83.1138 33.2861C83.1138 32.9951 82.9282 32.7592 82.6993 32.7592C82.4704 32.7592 82.2848 32.9951 82.2848 33.2861C82.2848 33.5771 82.4704 33.813 82.6993 33.813Z" fill="#EF3E3B"/>
<path d="M82.6993 35.468C82.9282 35.468 83.1138 35.2321 83.1138 34.9411C83.1138 34.6501 82.9282 34.4142 82.6993 34.4142C82.4704 34.4142 82.2848 34.6501 82.2848 34.9411C82.2848 35.2321 82.4704 35.468 82.6993 35.468Z" fill="#EF3E3B"/>
<path d="M84.4146 33.813C84.6435 33.813 84.8291 33.5771 84.8291 33.2861C84.8291 32.9951 84.6435 32.7592 84.4146 32.7592C84.1857 32.7592 84.0001 32.9951 84.0001 33.2861C84.0001 33.5771 84.1857 33.813 84.4146 33.813Z" fill="#EF3E3B"/>
<path d="M84.4146 35.468C84.6435 35.468 84.8291 35.2321 84.8291 34.9411C84.8291 34.6501 84.6435 34.4142 84.4146 34.4142C84.1857 34.4142 84.0001 34.6501 84.0001 34.9411C84.0001 35.2321 84.1857 35.468 84.4146 35.468Z" fill="#EF3E3B"/>
<path d="M60.218 16.6756H56.7278V7.25342H58.014L58.4724 11.9652L58.9464 7.25342H60.218V16.6756Z" fill="#E3EAF3"/>
<path d="M57.6298 13.084C57.8587 13.084 58.0443 12.8481 58.0443 12.5571C58.0443 12.2661 57.8587 12.0302 57.6298 12.0302C57.4009 12.0302 57.2153 12.2661 57.2153 12.5571C57.2153 12.8481 57.4009 13.084 57.6298 13.084Z" fill="#54A4CC"/>
<path d="M57.6298 14.6992C57.8587 14.6992 58.0443 14.4633 58.0443 14.1723C58.0443 13.8813 57.8587 13.6454 57.6298 13.6454C57.4009 13.6454 57.2153 13.8813 57.2153 14.1723C57.2153 14.4633 57.4009 14.6992 57.6298 14.6992Z" fill="#54A4CC"/>
<path d="M57.6298 16.353C57.8587 16.353 58.0443 16.1171 58.0443 15.8261C58.0443 15.5351 57.8587 15.2992 57.6298 15.2992C57.4009 15.2992 57.2153 15.5351 57.2153 15.8261C57.2153 16.1171 57.4009 16.353 57.6298 16.353Z" fill="#54A4CC"/>
<path d="M59.3452 13.084C59.5741 13.084 59.7596 12.8481 59.7596 12.5571C59.7596 12.2661 59.5741 12.0302 59.3452 12.0302C59.1162 12.0302 58.9307 12.2661 58.9307 12.5571C58.9307 12.8481 59.1162 13.084 59.3452 13.084Z" fill="#54A4CC"/>
<path d="M59.3452 14.6992C59.5741 14.6992 59.7596 14.4633 59.7596 14.1723C59.7596 13.8813 59.5741 13.6454 59.3452 13.6454C59.1162 13.6454 58.9307 13.8813 58.9307 14.1723C58.9307 14.4633 59.1162 14.6992 59.3452 14.6992Z" fill="#54A4CC"/>
<path d="M59.3452 16.353C59.5741 16.353 59.7596 16.1171 59.7596 15.8261C59.7596 15.5351 59.5741 15.2992 59.3452 15.2992C59.1162 15.2992 58.9307 15.5351 58.9307 15.8261C58.9307 16.1171 59.1162 16.353 59.3452 16.353Z" fill="#54A4CC"/>
<path d="M64.2626 8.04309H60.7714V16.6742H64.2626V8.04309Z" fill="#E3EAF3"/>
<path d="M61.6734 13.084C61.9023 13.084 62.0879 12.8481 62.0879 12.5571C62.0879 12.2661 61.9023 12.0302 61.6734 12.0302C61.4445 12.0302 61.2589 12.2661 61.2589 12.5571C61.2589 12.8481 61.4445 13.084 61.6734 13.084Z" fill="#ABBCCA"/>
<path d="M61.6734 14.6992C61.9023 14.6992 62.0879 14.4633 62.0879 14.1723C62.0879 13.8813 61.9023 13.6454 61.6734 13.6454C61.4445 13.6454 61.2589 13.8813 61.2589 14.1723C61.2589 14.4633 61.4445 14.6992 61.6734 14.6992Z" fill="#ABBCCA"/>
<path d="M61.6734 16.353C61.9023 16.353 62.0879 16.1171 62.0879 15.8261C62.0879 15.5351 61.9023 15.2992 61.6734 15.2992C61.4445 15.2992 61.2589 15.5351 61.2589 15.8261C61.2589 16.1171 61.4445 16.353 61.6734 16.353Z" fill="#ABBCCA"/>
<path d="M63.3898 13.084C63.6187 13.084 63.8043 12.8481 63.8043 12.5571C63.8043 12.2661 63.6187 12.0302 63.3898 12.0302C63.1609 12.0302 62.9753 12.2661 62.9753 12.5571C62.9753 12.8481 63.1609 13.084 63.3898 13.084Z" fill="#ABBCCA"/>
<path d="M63.3898 14.6992C63.6187 14.6992 63.8043 14.4633 63.8043 14.1723C63.8043 13.8813 63.6187 13.6454 63.3898 13.6454C63.1609 13.6454 62.9753 13.8813 62.9753 14.1723C62.9753 14.4633 63.1609 14.6992 63.3898 14.6992Z" fill="#ABBCCA"/>
<path d="M63.3898 16.353C63.6187 16.353 63.8043 16.1171 63.8043 15.8261C63.8043 15.5351 63.6187 15.2992 63.3898 15.2992C63.1609 15.2992 62.9753 15.5351 62.9753 15.8261C62.9753 16.1171 63.1609 16.353 63.3898 16.353Z" fill="#ABBCCA"/>
<path d="M61.6587 9.76319C61.8877 9.76319 62.0732 9.52728 62.0732 9.23627C62.0732 8.94526 61.8877 8.70935 61.6587 8.70935C61.4298 8.70935 61.2443 8.94526 61.2443 9.23627C61.2443 9.52728 61.4298 9.76319 61.6587 9.76319Z" fill="#ABBCCA"/>
<path d="M61.6587 11.417C61.8877 11.417 62.0732 11.1811 62.0732 10.8901C62.0732 10.5991 61.8877 10.3632 61.6587 10.3632C61.4298 10.3632 61.2443 10.5991 61.2443 10.8901C61.2443 11.1811 61.4298 11.417 61.6587 11.417Z" fill="#ABBCCA"/>
<path d="M63.3752 9.76319C63.6041 9.76319 63.7897 9.52728 63.7897 9.23627C63.7897 8.94526 63.6041 8.70935 63.3752 8.70935C63.1463 8.70935 62.9607 8.94526 62.9607 9.23627C62.9607 9.52728 63.1463 9.76319 63.3752 9.76319Z" fill="#ABBCCA"/>
<path d="M63.3752 11.417C63.6041 11.417 63.7897 11.1811 63.7897 10.8901C63.7897 10.5991 63.6041 10.3632 63.3752 10.3632C63.1463 10.3632 62.9607 10.5991 62.9607 10.8901C62.9607 11.1811 63.1463 11.417 63.3752 11.417Z" fill="#ABBCCA"/>
<path d="M78.4333 28.8411L75.2824 28.3805L72.1315 28.8411V22.6733L75.2824 23.1339L78.4333 22.6733V28.8411Z" fill="#54A4CC"/>
<path d="M72.1315 22.6733H70.9486V28.8411H72.1315V22.6733Z" fill="#EF3E3B"/>
<path d="M79.6162 22.6733H78.4333V28.8411H79.6162V22.6733Z" fill="#EF3E3B"/>
<path d="M76.9686 24.5076H73.5963V26.9975H76.9686V24.5076Z" fill="#E3EAF3"/>
<path d="M73.4042 16.6755L70.2533 16.215L67.1024 16.6755V10.5078L70.2533 10.9684L73.4042 10.5078V16.6755Z" fill="#EF3E3B"/>
<path d="M67.1023 10.5078H65.9194V16.6755H67.1023V10.5078Z" fill="#54A4CC"/>
<path d="M74.5871 10.5078H73.4042V16.6755H74.5871V10.5078Z" fill="#54A4CC"/>
<path d="M71.9394 12.3407H68.5671V14.8306H71.9394V12.3407Z" fill="#E3EAF3"/>
<path d="M54.6335 16.6755L51.4826 16.215L48.3317 16.6755V10.5078L51.4826 10.9684L54.6335 10.5078V16.6755Z" fill="#E3EAF3"/>
<path d="M48.3316 10.5078H47.1487V16.6755H48.3316V10.5078Z" fill="#EF3E3B"/>
<path d="M55.8163 10.5078H54.6334V16.6755H55.8163V10.5078Z" fill="#EF3E3B"/>
<path d="M53.1686 12.3407H49.7964V14.8306H53.1686V12.3407Z" fill="#54A4CC"/>
<path d="M67.0627 40.7252L63.9118 40.2647L60.7609 40.7252V34.5575L63.9118 35.0181L67.0627 34.5575V40.7252Z" fill="#EF3E3B"/>
<path d="M60.7609 34.5575H59.578V40.7252H60.7609V34.5575Z" fill="#E3EAF3"/>
<path d="M68.2456 34.5575H67.0627V40.7252H68.2456V34.5575Z" fill="#E3EAF3"/>
<path d="M65.598 36.3905H62.2257V38.8804H65.598V36.3905Z" fill="#54A4CC"/>
<path d="M100 3.58752H43.3766V5.73103H100V3.58752Z" fill="#A04833"/>
<path d="M98.3943 28.691H44.9813V29.7635H98.3943V28.691Z" fill="#E3EAF3"/>
<path d="M98.3943 16.6755H44.9813V17.748H98.3943V16.6755Z" fill="#E3EAF3"/>
<path d="M44.7078 4.65857V42.3246H98.4955V4.65857H44.7078ZM97.0704 40.566H46.1277V5.28636H97.0704V40.566Z" fill="#A04833"/>
<path d="M65.243 30.9885C65.243 30.9885 64.9819 35.0088 63.7291 36.7528C62.4763 38.4968 63.7061 30.8545 63.7061 30.8545L65.243 30.9885Z" fill="black"/>
<path d="M61.2234 38.7065C61.2892 38.4119 61.0146 37.6965 60.8475 37.2837C61.9814 37.504 63.3302 36.4874 64.0329 34.6876C64.0752 34.7166 64.1205 34.7376 64.1676 34.75C64.1676 34.75 64.2782 38.4942 64.9161 38.5406C65.6626 39.3542 68.1015 42.1096 67.6045 43.3891C67.1869 44.4602 64.936 43.908 61.5794 43.0825C61.2528 43.0185 60.9482 42.8339 60.7035 42.5516C59.9987 41.6982 60.1919 40.1625 60.2911 39.8161C60.4184 39.3648 61.1294 39.1299 61.2234 38.7065Z" fill="#EA9D7D"/>
<path d="M63.6717 39.1326C64.1175 37.9062 63.182 37.646 63.182 37.646L63.1893 37.6288C62.5713 38.1597 61.8801 38.3893 61.261 38.2367L61.1743 38.2114C61.0861 37.8881 60.9768 37.5747 60.8476 37.2744C61.9814 37.4947 63.2655 36.3825 63.9682 34.5814C63.9856 34.6294 64.0139 34.6697 64.0494 34.6971C64.0849 34.7245 64.1261 34.7379 64.1676 34.7354C64.1676 34.7354 64.1885 35.4322 64.2626 36.2272C64.3597 37.2797 64.5518 38.5088 64.9162 38.5353C65.9278 39.6263 68.3709 42.4056 67.8802 43.6386C67.3895 44.8716 64.0371 44.4349 61.5794 43.0771C61.2046 42.8701 60.8987 42.6684 60.6753 42.5117C62.2111 42.7307 63.2718 40.2329 63.6717 39.1326Z" fill="#D18165"/>
<path d="M62.6015 27.624C63.8951 27.9439 64.6896 30.0396 64.5069 32.4725H64.5173C64.8702 32.5601 65.079 33.1361 64.983 33.7692C64.8869 34.4023 64.5215 34.831 64.1676 34.7487C64.1274 34.7463 64.0881 34.7333 64.0521 34.7104C64.0162 34.6876 63.9844 34.6554 63.9588 34.616C63.2405 36.4582 61.9198 37.5505 60.7713 37.2705C59.3441 36.9161 58.8399 34.6797 59.2596 31.9482C59.6793 29.2167 61.1754 27.2697 62.6015 27.624Z" fill="#EA9D7D"/>
<path d="M64.5289 33.0325C64.6161 33.1077 64.682 33.2166 64.7168 33.343C64.7556 33.4735 64.764 33.6155 64.7408 33.7518C64.7188 33.8871 64.6679 34.012 64.5936 34.1128C64.5578 34.161 64.5175 34.2034 64.4735 34.2389C64.4291 34.2728 64.3814 34.2992 64.3315 34.3172C64.3516 34.2599 64.3743 34.2041 64.3994 34.15C64.4182 34.0943 64.4433 34.0465 64.4579 33.9947C64.4936 33.9 64.5202 33.8002 64.5372 33.6974C64.5666 33.477 64.5638 33.2516 64.5289 33.0325Z" fill="#D18165"/>
<path d="M59.9027 35.4707C60.9468 35.5318 61.0637 34.5125 61.0637 34.5125C60.6451 34.6807 60.2009 34.7194 59.7681 34.6253C59.7681 34.6253 60.075 35.0686 59.9027 35.4707Z" fill="#BE3E5F"/>
<path d="M60.1951 31.749C60.2342 32.0233 60.2385 32.3039 60.2076 32.5799C60.1933 32.7261 60.1609 32.8686 60.1115 33.0019C60.0823 33.0776 60.0541 33.1241 60.027 33.1838C59.9998 33.2435 59.9737 33.2953 59.9508 33.351C59.9043 33.4463 59.8757 33.5539 59.8672 33.6656C59.8662 33.6852 59.8684 33.7048 59.8736 33.7233C59.8788 33.7418 59.8869 33.7588 59.8975 33.7731C59.9254 33.8094 59.9588 33.8383 59.9957 33.858C60.1939 33.9339 60.3986 33.9785 60.6054 33.9908C60.3925 34.0829 60.1645 34.1035 59.9435 34.0505C59.8783 34.0304 59.8181 33.9903 59.7681 33.9337C59.7118 33.8669 59.6769 33.7762 59.6699 33.6788C59.6675 33.518 59.7012 33.3596 59.767 33.2223C59.7942 33.1586 59.8234 33.0975 59.8537 33.0391C59.8839 32.9807 59.9184 32.921 59.9393 32.8772C59.9851 32.7676 60.0202 32.6513 60.0437 32.5308C60.1074 32.2839 60.1481 32.0185 60.1951 31.749Z" fill="#D18165"/>
<path d="M60.8475 31.2036C61.0555 31.2468 61.2609 31.3075 61.4625 31.3854C61.5595 31.4251 61.6541 31.4739 61.7454 31.5314C61.8394 31.5858 61.9239 31.6641 62.0231 31.7332C61.9757 31.6019 61.9041 31.4872 61.8143 31.3987C61.725 31.3069 61.6231 31.2372 61.5136 31.193C61.4058 31.1481 61.293 31.1253 61.1795 31.1253C61.0659 31.1229 60.953 31.1495 60.8475 31.2036Z" fill="black"/>
<path d="M59.7795 30.9461C59.6876 30.8984 59.5904 30.8693 59.4914 30.8599C59.4726 30.9262 59.4559 30.9926 59.4381 31.059C59.54 31.0623 59.6416 31.0756 59.7419 31.0988C59.8463 31.1174 59.9424 31.1598 60.0551 31.193C59.9796 31.0845 59.8853 31 59.7795 30.9461Z" fill="black"/>
<path d="M59.5352 32.7525C59.5768 32.7626 59.6198 32.7514 59.6548 32.7213C59.6898 32.6912 59.714 32.6447 59.7221 32.5919L59.8119 32.0079C59.8169 31.9813 59.8176 31.9537 59.8141 31.9267C59.8105 31.8997 59.8026 31.8739 59.791 31.8509C59.7793 31.8279 59.7642 31.8081 59.7464 31.7927C59.7286 31.7773 59.7085 31.7667 59.6874 31.7614C59.6663 31.7561 59.6445 31.7563 59.6235 31.762C59.6024 31.7676 59.5825 31.7787 59.5648 31.7944C59.5472 31.8101 59.5323 31.8302 59.5209 31.8534C59.5095 31.8766 59.502 31.9025 59.4987 31.9296L59.41 32.5136C59.4017 32.5664 59.4102 32.6212 59.4337 32.666C59.4572 32.7108 59.4937 32.7419 59.5352 32.7525Z" fill="black"/>
<path d="M61.1441 32.8773C61.1857 32.8874 61.2288 32.8762 61.264 32.8462C61.2992 32.8161 61.3237 32.7695 61.332 32.7167L61.4218 32.1327C61.427 32.1059 61.428 32.0781 61.4245 32.0508C61.421 32.0236 61.4132 31.9976 61.4015 31.9743C61.3899 31.951 61.3746 31.931 61.3566 31.9155C61.3387 31.9 61.3184 31.8893 61.2971 31.8841C61.2758 31.8788 61.2539 31.8792 61.2327 31.8851C61.2115 31.8909 61.1915 31.9023 61.1738 31.9183C61.1562 31.9344 61.1413 31.9549 61.1301 31.9785C61.1189 32.0021 61.1115 32.0284 61.1086 32.0557L61.0146 32.6384C61.0107 32.6649 61.0109 32.6921 61.0153 32.7185C61.0197 32.7449 61.0282 32.7699 61.0402 32.7921C61.0523 32.8143 61.0676 32.8332 61.0854 32.8479C61.1033 32.8625 61.1232 32.8725 61.1441 32.8773Z" fill="black"/>
<path d="M65.2439 30.4789C65.2439 30.4789 64.6551 25.8826 62.8165 27.4846C62.8165 27.4846 61.0229 26.6644 60.1678 28.3659C59.3127 30.0674 58.9066 29.6321 58.9066 29.6321C58.9066 29.6321 60.3881 31.0191 61.3914 30.3196L62.6526 30.7948C62.8317 30.8621 62.9896 30.9993 63.1039 31.187C63.2182 31.3747 63.2831 31.6034 63.2895 31.8406L63.3406 33.7227C63.3759 33.8155 63.4316 33.8933 63.501 33.9466C63.5705 33.9999 63.6506 34.0263 63.7316 34.0226C63.8127 34.019 63.8911 33.9854 63.9574 33.926C64.0237 33.8666 64.0749 33.784 64.1049 33.6882C64.1821 33.4572 64.2625 33.2011 64.3367 32.9396C64.5966 32.0238 65.4204 31.3323 65.2439 30.4789Z" fill="black"/>
<path d="M50.07 53.1351L48.9925 53.1909C48.9925 53.1909 48.7576 52.9533 48.4392 52.6454C47.8389 52.0627 46.9389 51.2225 46.7541 51.2371C46.4712 51.2584 45.9794 51.5198 47.2031 52.7184L47.1937 52.729C47.1529 52.7675 46.964 52.9254 46.4806 52.9626C45.9241 53.0064 44.0501 53.1683 43.7452 53.3143C43.5802 53.3926 43.2096 54.0244 45.9878 53.8996C46.0098 53.8978 46.0318 53.9022 46.0523 53.9125C46.0728 53.9228 46.0912 53.9387 46.1063 53.9592C46.1213 53.9796 46.1327 54.004 46.1394 54.0307C46.1462 54.0573 46.1483 54.0855 46.1454 54.1133C46.1361 54.1783 46.0985 54.2367 45.9982 54.246C45.7466 54.2659 43.574 54.3124 43.6116 54.8114C43.6387 55.1751 44.2077 55.0862 46.1173 54.9787C46.1173 54.9787 46.42 55.0782 46.1789 55.276C46.0953 55.3437 43.9425 55.5998 43.8371 55.8162C43.7316 56.0325 43.4539 56.3882 46.6842 55.9396C46.6842 55.9396 46.7405 55.9807 46.4597 56.1891C46.1611 56.4108 45.2778 56.7094 45.0523 57.1275C44.8268 57.5456 45.4814 57.2137 47.1404 56.505L49.4665 56.1307C51.0044 56.4055 56.7591 57.0293 58.1884 55.1419C59.5279 53.374 60.2483 47.0457 60.2483 47.0457L56.9732 46.913L55.6013 51.63C55.5563 51.7847 55.4792 51.921 55.3784 52.0248C55.2775 52.1285 55.1565 52.1957 55.0281 52.2193L49.8789 53.1643" fill="#EA9D7D"/>
<path d="M50.0126 53.135V56.0802" stroke="#2F170B" stroke-width="6" stroke-linecap="round" stroke-linejoin="round"/>
<path d="M56.402 47.2116L57.6548 42.2278C57.8973 41.2327 58.3704 40.3538 59.0121 39.706C59.1759 39.5404 59.353 39.3971 59.5404 39.2786C59.5566 39.2685 59.5747 39.2639 59.5927 39.2653C59.6108 39.2667 59.6283 39.274 59.6435 39.2866C59.6586 39.2992 59.6709 39.3166 59.6792 39.337C59.6875 39.3575 59.6915 39.3804 59.6907 39.4034L59.484 47.2116H56.402Z" fill="#EF3E3B"/>
<path d="M56.402 47.2116L57.6548 42.2278C57.8973 41.2327 58.3704 40.3538 59.0121 39.706C59.1759 39.5404 59.353 39.3971 59.5404 39.2786C59.5566 39.2685 59.5747 39.2639 59.5927 39.2653C59.6108 39.2667 59.6283 39.274 59.6435 39.2866C59.6586 39.2992 59.6709 39.3166 59.6792 39.337C59.6875 39.3575 59.6915 39.3804 59.6907 39.4034L59.484 47.2116H56.402Z" fill="#E3EAF3"/>
<path d="M59.6407 41.0624L59.4841 47.2116H57.8376C57.8 45.7184 57.8877 44.0686 58.5685 42.233C59.0362 40.9828 59.3066 40.9204 59.4204 40.927C59.5044 40.9363 59.5828 40.9844 59.6407 41.0624Z" fill="#ABBCCA"/>
<path d="M74.7238 65.0405C74.676 64.8018 74.6505 64.5568 74.6476 64.3105C74.6236 62.244 74.468 54.3561 73.5326 50.7726C73.235 49.6285 70.4986 43.7992 70.4986 43.7992L66.5897 44.8504L70.035 52.1224C70.1877 52.4448 70.3 52.7954 70.3681 53.1616L72.4677 64.5295C72.4965 64.6856 72.4974 64.8479 72.4705 65.0045C72.4436 65.1611 72.3895 65.3081 72.3121 65.4347C71.8705 66.1554 70.9956 67.6193 71.0091 67.8875C71.029 68.2471 71.2378 68.8723 72.1722 67.3074C72.1722 67.3074 72.3319 67.5171 72.3685 68.2246C72.405 68.932 72.4864 71.6555 72.6618 71.7006C72.8372 71.7458 73.235 72.3935 73.1035 68.6931C73.1035 68.6931 73.3624 68.5099 73.3791 68.8258C73.3958 69.1417 73.5399 72.1838 73.8385 71.8573C74.1371 71.5307 74.0473 71.0967 73.9554 68.6719C73.9554 68.6719 74.1506 68.4741 74.1882 68.5909C74.2258 68.7077 74.4398 71.5799 74.6288 71.5639C74.8178 71.548 75.0798 72.047 74.7061 67.9458C74.7061 67.9458 74.8105 67.8768 74.9295 68.2883C75.0485 68.6997 75.5037 70.5061 75.652 70.0137C75.8002 69.5213 75.7177 69.4655 75.1498 67.3672L74.7269 65.0352L74.7238 65.0405Z" fill="#EA9D7D"/>
<path d="M66.5897 44.8477L67.5116 44.5995C68.2007 45.7117 69.0568 46.5187 70.1718 48.5945C71.0415 50.2124 71.6042 51.8582 71.8538 52.5537C72.5386 54.4596 72.3998 55.4325 72.856 60.1349C73.1306 62.9593 73.2674 64.3715 73.4115 65.1095C73.4115 65.1095 74.443 70.3999 73.9397 71.7099C73.9163 71.7707 73.8802 71.8221 73.8353 71.8585C73.5367 72.185 73.3927 69.147 73.376 68.8271C73.3593 68.5072 73.1003 68.6944 73.1003 68.6944C73.2319 72.3947 72.8352 71.7471 72.6587 71.7019C72.4823 71.6568 72.4029 68.9466 72.3664 68.2312C72.3298 67.5237 72.1701 67.314 72.1701 67.314C71.2305 68.8789 71.0217 68.2537 71.007 67.894C70.9935 67.6286 71.8684 66.1686 72.31 65.4413C72.3874 65.3147 72.4415 65.1677 72.4684 65.0111C72.4953 64.8545 72.4944 64.6922 72.4656 64.5361L70.366 53.1682C70.2979 52.802 70.1856 52.4514 70.033 52.129L66.5897 44.8477Z" fill="#D18165"/>
<path d="M56.614 46.3701H59.3817V46.901H56.4803L56.614 46.3701Z" fill="#25BEEF"/>
<path d="M57.8324 46.3701H59.3817V46.901H57.8324C57.8303 46.7258 57.8303 46.548 57.8324 46.3701Z" fill="#1A87C4"/>
<path d="M56.9199 45.149H59.3316V45.6799H56.7863L56.9199 45.149Z" fill="#25BEEF"/>
<path d="M57.9003 45.149H59.3317V45.6799H57.8585C57.869 45.5048 57.8825 45.3282 57.9003 45.149Z" fill="#1A87C4"/>
<path d="M59.6573 56.2581H67.7497C67.8764 56.2582 68.0017 56.2235 68.1169 56.1564C68.2321 56.0892 68.3345 55.9913 68.4172 55.8691C68.4999 55.747 68.5609 55.6036 68.5959 55.4488C68.631 55.294 68.6393 55.1313 68.6204 54.972L66.7098 38.9495L64.7428 38.396C64.0402 40.29 61.8759 40.3763 61.1848 38.4756L59.6918 39.1977C59.4342 39.2771 59.2066 39.4685 59.0484 39.7387C58.8901 40.009 58.8112 40.3411 58.8252 40.6775L58.8409 41.2761C58.9641 46.0879 59.088 50.8991 59.2126 55.71C59.2105 55.7498 59.2188 55.9436 59.6573 56.2581Z" fill="#E3EAF3"/>
<path d="M71.9884 46.974C72.0351 46.9342 72.075 46.8827 72.1057 46.8228C72.1363 46.7629 72.1572 46.6957 72.1669 46.6253C72.1767 46.5549 72.1751 46.4828 72.1624 46.4131C72.1497 46.3435 72.126 46.2779 72.0929 46.2201L69.1487 41.0226C69.1487 41.0226 68.1046 39.3131 66.7108 38.9495L65.9153 44.224L68.7342 49.6657C68.7445 49.6858 68.7579 49.703 68.7735 49.7163C68.7892 49.7297 68.8068 49.7389 68.8254 49.7433C68.8439 49.7478 68.8629 49.7474 68.8814 49.7423C68.8998 49.7372 68.9172 49.7274 68.9326 49.7135L71.9884 46.974Z" fill="#E3EAF3"/>
<path d="M68.7258 49.6603L65.9309 44.2611L65.9372 44.2093C65.949 44.111 65.9807 44.0182 66.0292 43.9401C66.0777 43.862 66.1413 43.8013 66.2138 43.7638C66.2863 43.7264 66.3653 43.7135 66.4428 43.7264C66.5204 43.7394 66.5941 43.7777 66.6565 43.8377C67.19 44.354 67.8718 45.2419 68.4961 46.0555C69.1476 46.905 69.8471 47.8168 70.1718 48.5945L68.9189 49.7081C68.8883 49.7341 68.8508 49.7436 68.8146 49.7347C68.7785 49.7257 68.7466 49.699 68.7258 49.6603Z" fill="#ABBCCA"/>
<path d="M71.8071 45.7202L68.3042 48.8639L68.545 49.2976L72.048 46.1539L71.8071 45.7202Z" fill="#25BEEF"/>
<path d="M69.6561 47.6509C69.7479 47.7929 69.8325 47.9336 69.9108 48.0703L68.5452 49.2967L68.4272 49.0803L68.3124 48.8573L69.6561 47.6509Z" fill="#1A87C4"/>
<path d="M71.2356 44.6881L67.6852 47.6439L67.914 48.0881L71.4644 45.1322L71.2356 44.6881Z" fill="#25BEEF"/>
<path d="M69.2155 47.0112L67.9147 48.0942L67.8051 47.8818L67.686 47.6509L68.9253 46.6196C69.0234 46.7497 69.1216 46.8811 69.2155 47.0112Z" fill="#1A87C4"/>
<path d="M59.2095 55.706C59.8234 55.4313 61.4187 55.422 63.8356 54.4531C66.1043 53.5452 66.5605 52.8073 66.7673 52.279C67.2527 51.0381 66.9353 49.4626 66.8048 48.8149C66.571 47.6522 66.5042 47.2076 66.0343 45.733C65.8767 45.238 65.8255 44.0395 66.0343 43.9412C66.2776 43.8271 66.9656 45.1623 67.6693 47.0165L68.6173 54.968C68.6362 55.1274 68.6279 55.29 68.5928 55.4448C68.5578 55.5997 68.4968 55.743 68.4141 55.8652C68.3314 55.9873 68.229 56.0853 68.1138 56.1524C67.9986 56.2195 67.8733 56.2542 67.7466 56.2541H59.6574C59.5418 56.2539 59.4308 56.1966 59.3479 56.0943C59.2649 55.9921 59.2164 55.8528 59.2126 55.706H59.2095Z" fill="#ABBCCA"/>
<path d="M47.1696 52.725C47.1696 52.725 47.6206 54.8725 49.1626 54.2792" stroke="#2F170B" stroke-width="2" stroke-miterlimit="10"/>
<path d="M53.534 98.3186C54.6699 97.2116 57.564 96.0622 58.2886 94.0037C58.6801 94.6288 60.8694 94.4523 61.7005 94.4018C61.7005 94.4018 61.973 96.1206 61.9093 97.3218C61.8456 98.5229 61.7934 98.8707 61.7934 98.8707L60.2514 98.945L60.2837 98.4433C60.2837 98.4433 59.3869 98.3929 58.8618 98.9649C58.3366 99.537 56.9031 100.205 55.43 99.9405C53.9569 99.6763 52.3971 99.4255 53.534 98.3186Z" fill="#7C2F13"/>
<path d="M55.4332 99.9379C56.9053 100.203 58.3388 99.5397 58.8639 98.9637C59.3891 98.3877 60.2838 98.4434 60.2838 98.4434L60.2452 98.9597L61.7872 98.8854C61.7872 98.8854 61.8352 98.5443 61.9031 97.3365C61.9251 96.6969 61.8996 96.0561 61.8269 95.4226C61.7663 94.8413 61.6985 94.4099 61.6985 94.4099C60.8632 94.455 58.7491 94.6156 58.2876 94.0117C58.0652 94.3528 57.6434 94.6753 57.3918 95.0098C57.3125 95.1173 57.2269 95.2235 57.1412 95.3257C57.0556 95.4279 56.993 95.4889 56.9178 95.5699C56.8207 95.6708 56.7215 95.773 56.6171 95.8712C55.5731 96.8613 54.2566 97.6232 53.533 98.3266C52.3982 99.4256 53.9601 99.6724 55.4332 99.9379Z" fill="#25BEEF"/>
<path d="M61.7005 94.4072C61.7005 94.4072 61.973 96.126 61.9093 97.3272C61.8926 97.6099 61.878 97.8435 61.8645 98.0373C61.3216 98.0558 60.6868 98.0014 60.9363 97.6099C61.3539 96.9608 61.3612 94.4165 61.3612 94.4165L61.7005 94.4072Z" fill="#E3EAF3"/>
<path d="M53.3012 98.5841C53.3726 98.4871 53.4505 98.3983 53.534 98.3186C54.0122 97.8528 54.7493 97.3617 55.4958 96.7963C56.0911 97.0092 56.6209 97.4487 57.0138 98.0558C57.3573 98.6053 57.3855 99.5025 57.4784 99.6485C57.0973 100.157 53.225 99.5569 53.1509 99.0499C53.1509 99.0499 53.1509 99.038 53.1509 99.0327C53.1583 98.8654 53.2115 98.7067 53.3012 98.5841Z" fill="#E3EAF3"/>
<path d="M55.4322 99.9379C54.2493 99.7242 53.011 99.5238 53.1562 98.8761C56.7821 100.499 58.3951 98.7579 58.7084 98.2124C59.0216 97.6669 59.6824 97.6935 59.6824 97.6935C60.8862 97.8262 61.5617 97.3949 61.9136 97.0471C61.9136 97.1414 61.9136 97.2356 61.9052 97.3258C61.8363 98.5336 61.7893 98.8747 61.7893 98.8747L60.2473 98.9491L60.2838 98.4434C60.2838 98.4434 59.387 98.393 58.8618 98.965C58.3367 99.537 56.9053 100.202 55.4322 99.9379Z" fill="#7C2F13"/>
<path d="M57.1433 95.3177C57.2091 95.3894 57.279 95.4584 57.3521 95.5221C57.4464 95.6118 57.5463 95.6917 57.6507 95.761C57.7636 95.8409 57.8849 95.8999 58.0109 95.9362C57.9778 95.7679 57.9181 95.6098 57.8355 95.4717C57.7593 95.3398 57.6673 95.2238 57.563 95.1279C57.5104 95.0804 57.4549 95.0382 57.397 95.0018C57.3145 95.1093 57.2289 95.2155 57.1433 95.3177Z" fill="#7C2F13"/>
<path d="M56.6191 95.8632C56.6672 95.9097 56.7152 95.9561 56.7643 95.996C56.8596 96.0837 56.9594 96.1635 57.0629 96.2349C57.1757 96.3148 57.297 96.3738 57.423 96.4101C57.3902 96.2416 57.3305 96.0835 57.2476 95.9455C57.1714 95.8136 57.0795 95.6977 56.9752 95.6018C56.9575 95.5852 56.939 95.5701 56.9198 95.5566C56.8227 95.6628 56.7235 95.765 56.6191 95.8632Z" fill="#7C2F13"/>
<path d="M60.0238 98.3106C61.1598 97.2037 63.9077 96.3317 64.6322 94.2771C65.0237 94.9022 67.2319 94.3222 68.0629 94.2771C68.0629 94.2771 68.4628 96.1193 68.3949 97.3298C68.3271 98.5402 68.279 98.8787 68.279 98.8787L66.737 98.953L66.7756 98.4367C66.7756 98.4367 65.8788 98.3863 65.3537 98.9596C64.8285 99.533 63.395 100.198 61.9219 99.9338C60.4488 99.6697 58.8869 99.4109 60.0238 98.3106Z" fill="#7C2F13"/>
<path d="M61.9229 99.9233C63.395 100.189 64.8284 99.5251 65.3536 98.9491C65.8787 98.3731 66.7756 98.4261 66.7756 98.4261L66.7369 98.9424L68.279 98.8681C68.279 98.8681 68.327 98.527 68.3949 97.3192C68.4293 96.7166 68.3249 95.9999 68.2654 95.4199C68.2212 95.0312 68.1535 94.6474 68.0629 94.2719C67.2276 94.3156 65.197 94.4577 64.6332 94.2719C64.3506 94.4498 64.0965 94.6928 63.8836 94.9886C63.8042 95.0974 63.7186 95.2022 63.633 95.3058C63.5589 95.3881 63.4848 95.469 63.4096 95.5487C63.3125 95.6509 63.2133 95.7517 63.1089 95.85C62.0649 96.8401 60.7483 97.6019 60.0248 98.3054C58.8879 99.4123 60.4497 99.6578 61.9229 99.9233Z" fill="#25BEEF"/>
<path d="M68.0629 94.2705C68.0629 94.2705 68.4628 96.1127 68.3949 97.3232C68.3782 97.6059 68.3636 97.8395 68.35 98.0346C67.8071 98.0532 67.1724 97.9974 67.4219 97.6072C67.8395 96.9569 67.8468 94.4125 67.8468 94.4125C67.9784 94.4032 67.9679 94.2758 68.0629 94.2705Z" fill="#E3EAF3"/>
<path d="M59.791 98.5761C59.8626 98.4795 59.9405 98.3908 60.0238 98.3107C60.502 97.8448 61.239 97.3537 61.9855 96.7883C62.5806 97.0005 63.1103 97.4391 63.5036 98.0452C63.8471 98.5947 63.8752 99.4919 63.9682 99.6379C63.5871 100.145 59.7148 99.545 59.6406 99.038C59.6406 99.038 59.6406 99.0274 59.6406 99.0208C59.649 98.855 59.7021 98.6979 59.791 98.5761Z" fill="#E3EAF3"/>
<path d="M61.9219 99.9232C60.739 99.7109 59.5008 99.5091 59.6459 98.8614C63.2719 100.485 64.8849 98.7433 65.1981 98.1978C65.5113 97.6523 66.1722 97.6788 66.1722 97.6788C67.376 97.8116 68.0567 97.3802 68.4033 97.0311C68.4033 97.1267 68.4033 97.2196 68.3949 97.3099C68.326 98.5177 68.2791 98.8588 68.2791 98.8588L66.737 98.9331L66.7756 98.4168C66.7756 98.4168 65.8788 98.3663 65.3537 98.9397C64.8285 99.5131 63.395 100.187 61.9219 99.9232Z" fill="#7C2F13"/>
<path d="M63.6331 95.3044C63.6988 95.3747 63.7688 95.4371 63.8419 95.5075C63.9359 95.5976 64.0358 95.6775 64.1405 95.7464C64.2535 95.8261 64.3747 95.8855 64.5007 95.9229C64.4675 95.7541 64.4079 95.5957 64.3253 95.457C64.2487 95.3255 64.1568 95.2095 64.0528 95.1133C64.0001 95.0657 63.9446 95.0236 63.8868 94.9872C63.8043 95.096 63.7187 95.2009 63.6331 95.3044Z" fill="#7C2F13"/>
<path d="M63.1089 95.8486C63.1569 95.895 63.2049 95.9415 63.254 95.9813C63.3491 96.0695 63.4489 96.1493 63.5526 96.2202C63.6657 96.2999 63.7869 96.3593 63.9128 96.3967C63.8801 96.2278 63.8204 96.0692 63.7374 95.9309C63.6609 95.7993 63.569 95.6834 63.4649 95.5871C63.4482 95.5712 63.4284 95.5566 63.4096 95.542C63.3114 95.6561 63.2133 95.7504 63.1089 95.8486Z" fill="#7C2F13"/>
<path d="M68.7624 64.864C69.3263 63.0524 69.5362 61.0941 69.3742 59.1568C69.2672 57.9255 69.0093 56.7231 68.61 55.5931C68.61 55.5931 61.3205 56.9682 59.2825 55.6714C59.2825 55.6714 57.6517 74.0592 57.6006 75.6784C57.5494 77.2977 58.2886 94.1444 58.2886 94.1444C58.2886 94.1444 60.2723 95.1585 61.6953 94.4683C61.6953 94.4683 62.8166 81.5528 62.6464 78.2758L62.7393 76.0434C62.7957 77.6626 64.6437 94.3701 64.6437 94.3701C64.6437 94.3701 66.6827 95.1664 68.0598 94.3289C68.0598 94.3289 68.3249 81.3405 67.9387 78.0874L67.9011 71.8493L68.7624 64.864Z" fill="#EF3E3B"/>
<path d="M62.9011 70.0509C62.6297 66.0692 62.0659 62.2507 61.8822 62.2759C61.7412 62.2945 61.8822 64.276 61.9333 68.8205C61.9709 72.5262 61.9135 75.0162 61.8289 78.5387C61.6692 85.4138 61.4531 86.5938 61.2202 87.5441C60.6125 89.9816 59.6135 92.2322 58.2865 94.1538C58.9557 94.536 60.0384 94.9753 61.2484 94.6356C61.3989 94.5937 61.5474 94.541 61.6932 94.4776C61.6932 94.4776 62.8145 81.5621 62.6443 78.2852L63.0066 72.2648C62.9982 71.6542 62.9659 70.9906 62.9011 70.0509Z" fill="#C82833"/>
<path d="M69.3742 59.1661C69.2672 57.9348 69.0094 56.7324 68.61 55.6024C68.61 55.6024 61.3205 56.9774 59.2826 55.6821C59.2032 56.4373 64.8838 56.5872 66.8122 61.1092C67.2914 62.2334 67.1755 74.9126 67.2903 78.4311C67.5169 85.3036 67.3665 86.4995 67.1859 87.4697C66.7174 89.9522 65.8489 92.2842 64.6353 94.3183V94.3302C64.7752 94.3953 64.9329 94.463 65.1052 94.52C65.6533 94.6674 66.5971 94.8386 67.4501 94.5944C67.5033 94.5771 67.5545 94.5612 67.6098 94.5413C67.7477 94.4888 67.8833 94.4268 68.0159 94.3555L68.0692 94.3209C68.0692 94.3063 68.0567 93.9228 68.0754 93.2392C68.1287 90.0432 68.2519 80.7697 67.9345 78.0913L67.8969 71.8533L68.0013 70.964V70.9574V70.9468L68.7509 64.868C69.318 63.0593 69.5319 61.1028 69.3742 59.1661Z" fill="#C82833"/>
<path d="M63.5746 57.5814C65.196 57.5814 67.3331 57.4128 68.943 56.6802L68.8731 56.4306C66.1993 57.649 62.0189 57.2801 61.3288 57.2084L61.3549 56.1957L61.1461 56.1877L61.1138 57.45L61.2109 57.4619C61.2328 57.4646 62.2236 57.5814 63.5746 57.5814Z" fill="#7C2F13"/>
<path d="M61.2119 57.4619L61.2307 57.1964C60.5474 57.112 59.87 56.9624 59.2043 56.7491L59.1489 57.0053C59.8266 57.2231 60.5162 57.3758 61.2119 57.4619Z" fill="#7C2F13"/>
<path d="M61.7945 62.3488L61.9699 62.2042C61.2391 60.7774 61.521 57.3995 61.5241 57.365L61.3153 57.3358C61.3038 57.4792 61.024 60.8437 61.7945 62.3488Z" fill="#7C2F13"/>
<path d="M68.1704 62.4046L68.2226 62.1471C66.9249 61.729 65.3296 59.0042 65.3129 58.9763L65.1448 59.1343C65.2126 59.2497 66.8017 61.9626 68.1704 62.4046Z" fill="#7C2F13"/>
<path d="M61.7392 57.1088C61.3362 57.1088 61.3351 56.3125 61.7392 56.3125C62.1432 56.3125 62.1432 57.1088 61.7392 57.1088Z" fill="#7C2F13"/>
<path d="M66.0531 94.4112L66.2619 94.3993C66.2619 94.2865 65.8579 83.0593 65.6355 77.5114C65.339 70.1756 66.6232 61.0256 66.6357 60.934L66.4269 60.8862C66.4133 60.9778 65.125 70.1584 65.4225 77.5246C65.6501 83.0725 66.049 94.2984 66.0531 94.4112Z" fill="#7C2F13"/>
<path d="M95.5608 78.6567C95.1546 76.3406 94.5313 74.1626 93.2325 74.3497C91.9338 74.5369 90.896 76.7999 90.8563 79.3362C90.8198 81.708 92.2919 83.4507 93.5907 83.2649C94.8894 83.0791 96.0723 81.5713 95.5608 78.6567Z" fill="#7BCE34"/>
<path d="M94.2881 80.0848C92.9883 80.272 91.5172 78.528 91.5538 76.1548C91.5538 76.1018 91.5538 76.0473 91.5538 75.9929C91.1022 77.0146 90.8606 78.1644 90.8511 79.3363C90.8146 81.7081 92.2867 83.4507 93.5855 83.2649C94.7892 83.0911 95.8917 81.785 95.6412 79.2752C95.2738 79.7294 94.7975 80.0144 94.2881 80.0848Z" fill="#3C8F2D"/>
<path d="M99.0917 85.4204C98.9873 83.0513 97.9432 82.3677 96.6392 82.5549C95.3352 82.742 94.3037 85.0036 94.264 87.54C94.2264 89.9131 94.9155 90.8316 96.2143 90.6444C97.5131 90.4573 99.2263 88.6217 99.0917 85.4204Z" fill="#7BCE34"/>
<path d="M98.2648 88.5102C96.966 88.6973 96.2811 87.7775 96.3145 85.4057C96.3258 84.4142 96.4982 83.4363 96.8209 82.5336C96.7614 82.5336 96.7008 82.5455 96.6392 82.5548C95.3404 82.7419 94.3037 85.0036 94.264 87.54C94.2264 89.9131 94.9155 90.8315 96.2143 90.6444C97.0255 90.5276 97.9996 89.7658 98.5832 88.4319C98.4786 88.4672 98.3722 88.4933 98.2648 88.5102Z" fill="#3C8F2D"/>
<path d="M91.1267 82.7048C90.0827 81.643 88.8956 81.5223 88.3715 82.2151C87.8474 82.9079 88.2159 84.1662 89.1347 85.5558C89.9939 86.8565 91.0589 87.5626 91.8273 86.883C92.4453 86.3229 92.4401 84.0493 91.1267 82.7048Z" fill="#7BCE34"/>
<path d="M91.3961 83.0208C91.4107 83.6725 91.2625 84.2153 91.0004 84.4516C90.232 85.1391 89.166 84.433 88.3078 83.1323C88.2483 83.042 88.1909 82.9531 88.1366 82.8668C88.0761 83.5756 88.4498 84.5312 89.1326 85.5585C89.9919 86.8592 91.0568 87.5653 91.8252 86.8857C92.3994 86.3654 92.4339 84.3746 91.3961 83.0208Z" fill="#3C8F2D"/>
<path d="M89.6432 83.0646C89.9273 83.2838 90.1938 83.5381 90.4387 83.8238C90.4671 83.8617 90.4929 83.9026 90.516 83.9459C90.5411 83.9883 90.5672 84.0295 90.5922 84.0693C90.6434 84.1529 90.6966 84.2312 90.7446 84.3175C90.8397 84.4887 90.942 84.6533 91.0307 84.8298C91.4002 85.5245 91.7087 86.2687 91.9505 87.049C92.1976 87.8268 92.3748 88.6376 92.4788 89.4659L92.5195 89.7751C92.5258 89.8269 92.5341 89.8787 92.5383 89.9304L92.5487 90.087C92.5613 90.2954 92.578 90.5038 92.5895 90.7135C92.5795 90.9241 92.5596 91.1337 92.5299 91.3413C92.5038 91.5497 92.4757 91.7554 92.4443 91.9598C92.4151 91.7514 92.3869 91.547 92.3619 91.3426C92.3368 91.1382 92.3211 90.9365 92.2773 90.7361C92.2616 90.5343 92.2522 90.3379 92.2376 90.1309L92.2272 89.9795C92.2272 89.9291 92.2146 89.88 92.2094 89.8296L92.1698 89.5309C92.0691 88.7308 91.8978 87.9477 91.6592 87.1963C91.4264 86.4422 91.1284 85.7233 90.7707 85.0528C90.6851 84.8816 90.586 84.7223 90.4941 84.5577C90.4022 84.3932 90.2968 84.2405 90.1965 84.0839C90.0253 83.7375 89.8426 83.399 89.6432 83.0646Z" fill="#2E6821"/>
<path d="M93.3244 75.1475C93.4152 75.8403 93.4831 76.5358 93.5499 77.2312L93.6021 79.3256C93.6334 80.7219 93.6575 82.1129 93.6679 83.5158C93.6783 84.9187 93.6762 86.3123 93.646 87.7112C93.6303 88.4107 93.6063 89.1115 93.5635 89.8122C93.5186 90.16 93.4685 90.5077 93.4058 90.8528C93.3489 91.1994 93.2617 91.5369 93.1459 91.8589L93.1876 91.6014L93.2116 91.3359C93.2252 91.1634 93.2336 90.9895 93.2398 90.817C93.2503 90.4692 93.2555 90.1228 93.2513 89.7738C93.2931 89.0836 93.3171 88.3881 93.3328 87.6926C93.363 86.3017 93.3651 84.9054 93.3547 83.5131C93.3442 82.1208 93.3202 80.7259 93.2889 79.331C93.2722 78.6341 93.2565 77.936 93.2336 77.2392C93.2597 76.5437 93.2847 75.8482 93.3244 75.1475Z" fill="#2E6821"/>
<path d="M94.2609 91.6969C94.3955 91.3704 94.5073 91.0333 94.619 90.7028C94.7724 90.4015 94.9144 90.0896 95.0564 89.7738C95.3383 89.1486 95.6035 88.5089 95.8666 87.8678C96.1297 87.2268 96.3813 86.5777 96.6298 85.9274L97.0004 84.9492C97.1643 84.6466 97.3283 84.3453 97.5068 84.0507C97.4421 84.4117 97.3617 84.766 97.2823 85.1125L96.9117 86.0946C96.6611 86.7476 96.4053 87.3975 96.1443 88.0444C95.8802 88.6881 95.6129 89.3318 95.3279 89.9649L95.1118 90.4374C95.0355 90.5927 94.9645 90.7519 94.8873 90.9059C94.7007 91.1965 94.4907 91.4616 94.2609 91.6969Z" fill="#2E6821"/>
<path d="M96.2174 99.8237H91.4305C91.1319 99.8238 90.8431 99.6875 90.6169 99.4398C90.3906 99.1921 90.2418 98.8493 90.1975 98.4739L89.3539 91.3319C89.2954 90.8369 92.1592 91.2284 93.9132 91.2072C95.5649 91.186 98.2648 90.9895 98.2355 91.2377L97.4515 98.4739C97.4072 98.8495 97.2582 99.1925 97.0317 99.4402C96.8052 99.688 96.5162 99.8241 96.2174 99.8237Z" fill="#ABBCCA"/>
<path d="M93.7974 91.2085C92.0445 91.2311 89.2987 90.8369 89.3571 91.332L90.2007 98.4739C90.245 98.8494 90.3938 99.1921 90.6201 99.4398C90.8464 99.6876 91.1351 99.8238 91.4337 99.8237H93.3276C92.8312 99.1258 92.5537 98.2203 92.5477 97.2794C92.5477 97.0856 92.5665 95.8327 93.2785 94.8319C93.7066 94.2347 94.3998 93.9294 95.7842 93.3176C96.4514 93.0242 96.9838 92.8769 97.5591 92.2558C97.8021 92.0084 98.0221 91.7265 98.2147 91.4156L98.2335 91.2378C98.2648 90.9896 95.447 91.1873 93.7974 91.2085Z" fill="#91A6B5"/>
<path d="M48.2784 36.786H29.254C29.0176 36.786 28.8259 37.0296 28.8259 37.3302V52.6002C28.8259 52.9007 29.0176 53.1444 29.254 53.1444H48.2784C48.5148 53.1444 48.7065 52.9007 48.7065 52.6002V37.3302C48.7065 37.0296 48.5148 36.786 48.2784 36.786Z" fill="#9D9F9F"/>
<path d="M48.5655 36.786H46.7008C46.623 36.786 46.5599 36.8662 46.5599 36.9652V52.9652C46.5599 53.0641 46.623 53.1444 46.7008 53.1444H48.5655C48.6433 53.1444 48.7064 53.0641 48.7064 52.9652V36.9652C48.7064 36.8662 48.6433 36.786 48.5655 36.786Z" fill="#454851"/>
<path d="M43.2409 55.3516H34.6057L38.1857 49.5117C38.1856 49.485 38.1896 49.4585 38.1976 49.4337C38.2056 49.409 38.2173 49.3866 38.2322 49.3677C38.2471 49.3488 38.2647 49.3338 38.2842 49.3237C38.3036 49.3136 38.3244 49.3084 38.3455 49.3086H39.1869C39.208 49.3084 39.2288 49.3136 39.2482 49.3237C39.2677 49.3338 39.2854 49.3488 39.3002 49.3677C39.3151 49.3866 39.3268 49.409 39.3348 49.4337C39.3428 49.4585 39.3468 49.485 39.3467 49.5117L43.2409 55.3516Z" fill="#E3EAF3"/>
<path d="M39.3466 49.5103C39.3467 49.4836 39.3427 49.4571 39.3347 49.4324C39.3267 49.4077 39.315 49.3852 39.3001 49.3663C39.2853 49.3474 39.2676 49.3325 39.2481 49.3224C39.2287 49.3122 39.2079 49.3071 39.1869 49.3073H38.3454C38.3243 49.3071 38.3035 49.3122 38.2841 49.3224C38.2646 49.3325 38.247 49.3474 38.2321 49.3663C38.2172 49.3852 38.2055 49.4077 38.1975 49.4324C38.1895 49.4571 38.1855 49.4836 38.1856 49.5103L37.9163 49.9483L41.5171 55.3515H43.2409L39.3466 49.5103Z" fill="#ABBCCA"/>
<path d="M34.2872 55.3516H43.2357C43.2919 55.3516 43.3475 55.3656 43.3995 55.393C43.4514 55.4203 43.4986 55.4604 43.5383 55.5109C43.5781 55.5615 43.6096 55.6215 43.6311 55.6875C43.6526 55.7535 43.6637 55.8243 43.6637 55.8957V57.1261H33.8644V55.8957C33.8644 55.7526 33.9088 55.6151 33.9879 55.5133C34.0671 55.4114 34.1746 55.3533 34.2872 55.3516Z" fill="#9D9F9F"/>
<path d="M42.4401 55.3516H43.5071C43.5497 55.3516 43.5906 55.3731 43.6208 55.4114C43.6509 55.4498 43.6679 55.5018 43.6679 55.556V57.1261H42.2793V55.556C42.2793 55.5018 42.2962 55.4498 42.3264 55.4114C42.3565 55.3731 42.3974 55.3516 42.4401 55.3516Z" fill="#454851"/>
<path d="M39.2214 41.941H37.7096C37.2621 41.941 36.8994 42.4022 36.8994 42.971V44.5225C36.8994 45.0914 37.2621 45.5525 37.7096 45.5525H39.2214C39.6688 45.5525 40.0315 45.0914 40.0315 44.5225V42.971C40.0315 42.4022 39.6688 41.941 39.2214 41.941Z" fill="#E3EAF3"/>
<path d="M39.8666 60.865H38.1962V99.7587H39.8666V60.865Z" fill="#396E8E"/>
<path d="M81.628 59.8031H26.7211V91.1315H81.628V59.8031Z" fill="#54A4CC"/>
<path d="M81.627 59.8031H69.3491V91.1315H81.627V59.8031Z" fill="#396E8E"/>
<path d="M60.0885 69.8943H35.4492V79.3178H60.0885V69.8943Z" fill="#E3EAF3"/>
<path d="M27.5563 60.865H25.8859V99.8251H27.5563V60.865Z" fill="#54A4CC"/>
<path d="M85.1308 57.1261H23.2184V60.865H85.1308V57.1261Z" fill="#895237"/>
<path d="M82.4633 60.865H80.7928V99.7587H82.4633V60.865Z" fill="#396E8E"/>
<path d="M70.1844 60.865H68.5139V99.8251H70.1844V60.865Z" fill="#54A4CC"/>
<path d="M85.1308 57.1261H23.2184V60.865H85.1308V57.1261Z" fill="#C9EFFB"/>
<path d="M85.1298 57.1261H65.9038V60.865H85.1298V57.1261Z" fill="#87DBF6"/>
<path d="M11.1242 27.701C11.1242 27.701 10.0113 27.7713 9.94863 29.3932C9.88599 31.0151 8.92651 30.5625 8.92651 30.5625C8.92651 30.5625 9.5686 31.8048 10.8549 30.5147C12.1411 29.2246 12.3092 29.0548 12.3092 29.0548C12.3092 29.0548 12.304 27.7647 11.2077 27.693" fill="#000001"/>
<path d="M10.6189 31.0948C10.6189 31.0948 10.8799 35.1163 12.1307 36.8603C13.3814 38.6043 12.1536 30.962 12.1536 30.962L10.6189 31.0948Z" fill="#000001"/>
<path d="M14.6374 38.814C14.5717 38.5193 14.841 37.8039 15.0133 37.3911C13.8805 37.6115 12.5306 36.5948 11.8279 34.795C11.7858 34.8242 11.7404 34.8448 11.6933 34.8561C11.6933 34.8561 11.5836 38.6016 10.9447 38.6467C10.1982 39.4617 7.75933 42.217 8.25629 43.4952C8.6739 44.5676 10.9248 44.0141 14.2825 43.1899C14.609 43.1254 14.9135 42.9409 15.1584 42.659C15.8621 41.8042 15.67 40.2699 15.576 39.9235C15.4424 39.4709 14.7314 39.2373 14.6374 38.814Z" fill="#EA9D7D"/>
<path d="M12.1891 39.2401C11.7433 38.0137 12.6788 37.7536 12.6788 37.7536L12.6725 37.7363C13.2906 38.2672 13.9807 38.4968 14.5998 38.3429C14.629 38.3362 14.6572 38.327 14.6864 38.3177C14.7751 37.9945 14.8844 37.6811 15.0132 37.3806C13.8804 37.6023 12.5952 36.49 11.8926 34.689C11.8757 34.7377 11.8476 34.7788 11.812 34.807C11.7765 34.8351 11.7351 34.8491 11.6932 34.8469C11.6932 34.8469 11.6723 35.5437 11.5982 36.3387C11.5 37.3899 11.3079 38.6203 10.9436 38.6455C9.93189 39.7378 7.48885 42.5171 7.97954 43.7488C8.47024 44.9805 11.8226 44.5451 14.2814 43.1887C14.6551 42.9816 14.9621 42.7799 15.1844 42.6233C13.6497 42.8383 12.589 40.3404 12.1891 39.2401Z" fill="#D18165"/>
<path d="M13.2604 27.7302C11.9657 28.0514 11.1723 30.1471 11.3539 32.58H11.3445C10.9906 32.6676 10.7818 33.2436 10.8779 33.8767C10.9739 34.5098 11.3393 34.9385 11.6932 34.8549C11.7335 34.853 11.7729 34.8402 11.809 34.8173C11.845 34.7944 11.8767 34.7619 11.9021 34.7221C12.6214 36.563 13.9411 37.6567 15.0895 37.3766C16.5157 37.0236 17.0199 34.7872 16.5992 32.0491C16.1784 29.3109 14.6855 27.3771 13.2604 27.7302Z" fill="#EA9D7D"/>
<path d="M14.6698 35.4415C15.0659 35.4758 15.4597 35.5441 15.8485 35.6459C15.8485 35.6459 15.8099 34.9345 15.3422 34.8495C14.8744 34.7646 14.6698 35.4415 14.6698 35.4415Z" fill="#BE3E5F"/>
<path d="M15.6699 31.8724C15.7169 32.1379 15.7577 32.4033 15.8151 32.6595C15.841 32.7797 15.8782 32.8956 15.9257 33.0046C15.9456 33.0497 15.9821 33.1108 16.0114 33.1678C16.0406 33.2249 16.0709 33.286 16.098 33.3497C16.1637 33.4871 16.1973 33.6454 16.1951 33.8062C16.1881 33.9036 16.1532 33.9943 16.097 34.0611C16.0472 34.1182 15.9869 34.1584 15.9216 34.1779C15.7006 34.2316 15.4724 34.211 15.2596 34.1181C15.4661 34.1066 15.6706 34.062 15.8683 33.9854C15.9056 33.966 15.9394 33.9371 15.9675 33.9005C15.9779 33.886 15.9859 33.869 15.9911 33.8506C15.9963 33.8321 15.9986 33.8125 15.9978 33.793C15.9895 33.6817 15.9609 33.5745 15.9143 33.4797C15.8913 33.424 15.8652 33.3682 15.837 33.3125C15.8088 33.2568 15.7817 33.205 15.7535 33.1293C15.7035 32.9963 15.6711 32.8537 15.6574 32.7073C15.6257 32.43 15.6299 32.148 15.6699 31.8724Z" fill="#D18165"/>
<path d="M13.7782 31.5155C13.9882 31.5082 14.1975 31.4825 14.4046 31.4385C14.505 31.4162 14.6038 31.3838 14.7001 31.3416C14.8045 31.3031 14.8922 31.2434 14.9976 31.189C14.9359 31.311 14.8522 31.4125 14.7533 31.4849C14.6553 31.5611 14.547 31.6134 14.4339 31.6389C14.3221 31.6639 14.2081 31.667 14.0956 31.6482C13.9838 31.6316 13.8759 31.5864 13.7782 31.5155Z" fill="#000001"/>
<path d="M16.4071 31.1053C16.4238 31.1691 16.4405 31.2381 16.4562 31.2991H16.4405C16.3288 31.3247 16.2147 31.3279 16.1022 31.3084C15.9901 31.292 15.8818 31.2468 15.7838 31.1757C15.9926 31.17 16.2008 31.1465 16.4071 31.1053Z" fill="#000001"/>
<path d="M16.3298 32.8773C16.3092 32.8825 16.288 32.8824 16.2675 32.8771C16.2469 32.8719 16.2274 32.8615 16.21 32.8465C16.1926 32.8316 16.1778 32.8124 16.1662 32.7901C16.1547 32.7678 16.1468 32.7429 16.1429 32.7167L16.0531 32.1327C16.0475 32.0812 16.0577 32.029 16.0815 31.9867C16.1053 31.9445 16.1409 31.9154 16.1811 31.9055C16.2212 31.8957 16.2628 31.9058 16.2972 31.9337C16.3317 31.9616 16.3564 32.0053 16.3663 32.0557L16.4551 32.6397C16.4592 32.6657 16.4592 32.6926 16.4551 32.7186C16.451 32.7447 16.4429 32.7695 16.4313 32.7916C16.4196 32.8136 16.4047 32.8326 16.3873 32.8473C16.3699 32.862 16.3503 32.8722 16.3298 32.8773Z" fill="#000001"/>
<path d="M14.7209 33.0007C14.7003 33.0061 14.679 33.0062 14.6583 33.001C14.6376 32.9958 14.618 32.9854 14.6005 32.9705C14.583 32.9555 14.568 32.9363 14.5564 32.9139C14.5448 32.8915 14.5369 32.8664 14.533 32.8401L14.4432 32.2574C14.4382 32.2308 14.4375 32.2032 14.4411 32.1762C14.4447 32.1492 14.4525 32.1234 14.4642 32.1004C14.4758 32.0774 14.491 32.0576 14.5088 32.0422C14.5266 32.0268 14.5466 32.0162 14.5678 32.0109C14.5889 32.0056 14.6106 32.0058 14.6317 32.0115C14.6527 32.0172 14.6727 32.0282 14.6903 32.0439C14.7079 32.0596 14.7229 32.0797 14.7342 32.1029C14.7456 32.1261 14.7531 32.1521 14.7564 32.1791L14.8462 32.7631C14.8542 32.8157 14.8455 32.8702 14.8221 32.9147C14.7986 32.9592 14.7623 32.9901 14.7209 33.0007Z" fill="#000001"/>
<path d="M11.332 33.1427C11.2977 33.3615 11.2952 33.5864 11.3247 33.8063C11.342 33.9088 11.3682 34.0086 11.403 34.1036C11.4176 34.1554 11.4427 34.2032 11.4625 34.2589C11.4823 34.3147 11.5095 34.3624 11.5293 34.4262C11.4798 34.407 11.4322 34.3807 11.3873 34.3478C11.3438 34.3122 11.3038 34.2698 11.2683 34.2218C11.1931 34.1211 11.1417 33.9955 11.1201 33.8594C11.097 33.7235 11.1053 33.582 11.1441 33.4519C11.1793 33.3261 11.2451 33.2178 11.332 33.1427Z" fill="#D18165"/>
<path d="M11.3445 32.572C11.3445 32.572 11.9563 35.3088 12.4595 36.2166C12.9252 37.0554 13.7959 37.885 15.1521 37.7031C15.4097 37.671 15.6545 37.5447 15.8568 37.3395C16.2536 36.932 16.8215 36.0746 16.713 34.5615C16.713 34.5615 16.3674 34.0638 15.4361 34.089C14.5048 34.1143 14.2699 34.4182 14.1102 34.6478C13.9504 34.8774 13.2394 35.983 12.8845 35.6366C12.5295 35.2902 11.6723 33.0631 12.0764 31.8632C12.4804 30.6634 12.9461 31.1598 12.4522 29.7927C12.4522 29.7927 13.1591 29.4636 14.3941 29.8087C14.6484 29.8835 14.9153 29.8392 15.1459 29.6839C15.3317 29.5512 15.4987 29.3627 15.4831 29.0933C15.8125 29.615 16.0928 30.1838 16.3183 30.7882C16.3183 30.7882 16.9165 29.6321 16.0813 28.6739C15.3703 27.8576 15.1479 27.3692 14.9099 27.255C14.438 27.0281 14.2407 27.3878 13.7761 27.4913C13.3115 27.5948 13.2227 27.2192 12.6819 27.5855C12.1411 27.9518 11.9104 28.5053 11.7256 29.0296C11.7256 29.0296 11.1942 28.9367 10.7097 30.1484C10.4968 30.686 10.4205 33.4241 11.3445 32.572ZM14.5215 34.6744C14.6478 34.5191 15.0133 34.2669 15.5436 34.3863C16.05 34.4992 16.1179 34.9172 16.1962 35.2358C16.2355 35.388 16.2476 35.5494 16.2317 35.7083C16.1962 36.0268 16.0677 36.1436 15.8454 36.1755C15.5697 36.2126 15.5092 35.7016 15.3119 35.7295C15.1145 35.7574 15.1427 36.1888 14.6541 36.2153C14.1655 36.2418 14.1958 35.0725 14.5215 34.6744Z" fill="#000001"/>
<path d="M19.7752 99.6299C18.3135 99.8954 16.8905 99.2742 16.3685 98.73C15.8464 98.1859 14.9976 98.4009 14.9976 98.4009L15.0227 99.695L13.4953 99.6379C13.4953 99.6379 13.4201 98.3544 13.3512 97.1997C13.3167 96.621 13.465 96.2999 13.5235 95.7398C13.5819 95.1797 13.8972 94.2798 13.8972 94.2798C14.722 94.3143 16.8477 94.4722 17.2382 93.8723C17.3881 94.2597 17.589 94.6116 17.8322 94.9129C17.9105 95.0151 17.9951 95.1159 18.0807 95.2142C18.1663 95.3124 18.2269 95.3681 18.302 95.4438C18.3991 95.5407 18.4973 95.6362 18.6006 95.7305C19.6447 96.6675 20.9455 97.3855 21.6649 98.0518C22.7903 99.107 21.2368 99.3631 19.7752 99.6299Z" fill="#EA9D7D"/>
<path d="M5.20662 98.657C3.85563 97.8978 2.90973 96.41 2.69466 95.5964C2.47959 94.7828 1.70178 94.2319 1.70178 94.2319L1.27373 95.1L0 94.0196C0 94.0196 0.349753 93.2869 0.773632 92.261C0.98244 91.7487 1.24658 91.5761 1.52743 91.1448C1.80827 90.7134 2.4514 90.1626 2.4514 90.1626C3.13629 90.7479 4.87148 92.3167 5.45092 92.0685C5.41578 92.4978 5.43909 92.9315 5.51983 93.3507C5.54384 93.4913 5.57307 93.6334 5.60544 93.774C5.63467 93.8908 5.66495 94.0037 5.69627 94.1191C5.73803 94.2665 5.78188 94.4138 5.83095 94.5624C6.3206 96.0596 7.1266 97.5474 7.45756 98.5973C7.97749 100.248 6.5576 99.4162 5.20662 98.657Z" fill="#EA9D7D"/>
<path d="M13.8972 94.2877C13.8972 94.2877 13.2833 96.0437 13.3522 97.1997C13.3679 97.4652 13.3825 97.6934 13.396 97.8793C13.9358 97.8925 14.5654 97.8341 14.3179 97.4612C13.9066 96.8427 14.2375 94.2997 14.2375 94.2997L13.8972 94.2877Z" fill="#7C2F13"/>
<path d="M21.8934 98.3107C21.822 98.2183 21.7444 98.134 21.6617 98.0585C21.1866 97.6178 20.4547 97.1533 19.7135 96.6198C19.1271 96.8269 18.6029 97.2521 18.208 97.8408C17.8666 98.3717 17.8394 99.2291 17.7476 99.3751C18.1255 99.8582 21.9686 99.2424 22.0417 98.7593C22.0422 98.754 22.0422 98.7486 22.0417 98.7434C22.0343 98.5813 21.9818 98.4279 21.8934 98.3107Z" fill="#7C2F13"/>
<path d="M19.7752 99.63C20.9487 99.4149 22.1765 99.2105 22.0345 98.5947C18.4357 100.187 16.8331 98.5336 16.5219 98.0187C16.2108 97.5037 15.5552 97.5302 15.5552 97.5302C14.3597 97.663 13.6843 97.2648 13.3397 96.933C13.3397 97.0232 13.3397 97.1135 13.3491 97.1984C13.417 98.3531 13.4932 99.6366 13.4932 99.6366L15.0238 99.6937L14.9987 98.3996C14.9987 98.3996 15.7984 98.2377 16.2912 99.0898C16.6598 99.7242 18.3135 99.9034 19.7752 99.63Z" fill="#7C2F13"/>
<path d="M16.2943 94.2877C16.4264 94.6495 16.6057 94.9802 16.8247 95.2659C17.0356 95.5569 17.2666 95.8234 17.5148 96.0623C17.7608 96.302 18.02 96.5189 18.2905 96.7113C18.4252 96.8068 18.564 96.8944 18.7081 96.9767C18.8522 97.059 18.9931 97.1333 19.1414 97.1957C19.0276 97.063 18.9075 96.9303 18.7885 96.8108C18.6695 96.6914 18.5515 96.5653 18.4294 96.4485C18.1924 96.2069 17.9481 95.9786 17.71 95.7424C17.472 95.5061 17.2319 95.2739 16.9959 95.035C16.76 94.7961 16.5219 94.5585 16.2943 94.2877Z" fill="#7C2F13"/>
<path d="M2.45248 90.1626C2.45248 90.1626 1.19964 91.2363 0.774713 92.2623C0.67553 92.5025 0.595139 92.7016 0.52832 92.8689C0.980389 93.2431 1.53895 93.6188 1.48466 93.1343C1.39383 92.338 2.7375 90.4002 2.7375 90.4002C2.62684 90.3099 2.52974 90.229 2.45248 90.1626Z" fill="#7C2F13"/>
<path d="M7.54938 98.9742C7.5282 98.8479 7.49779 98.7244 7.45854 98.6052C7.24034 97.9098 6.81333 97.0232 6.40824 96.0702C5.82443 95.8514 5.2026 95.8583 4.6219 96.0901C4.1124 96.3091 3.73029 97.0192 3.59143 97.0802C3.71045 97.7438 7.22364 99.817 7.48882 99.456L7.49717 99.4427C7.55927 99.3 7.57785 99.1332 7.54938 98.9742Z" fill="#7C2F13"/>
<path d="M5.20766 98.657C6.29241 99.2675 7.41997 99.9219 7.55361 99.3034C3.83997 98.2243 3.16865 95.7424 3.12272 95.096C3.07678 94.4496 2.50673 94.0342 2.50673 94.0342C1.43764 93.3427 1.03255 92.5464 0.878036 92.0327C0.841495 92.111 0.805997 92.1893 0.773632 92.2663C0.349753 93.2923 0 94.0236 0 94.0236L1.27373 95.104L1.70074 94.2359C1.70074 94.2359 2.47854 94.7881 2.69466 95.6004C2.91078 96.4126 3.85667 97.8992 5.20766 98.657Z" fill="#7C2F13"/>
<path d="M4.48412 91.7793C4.44537 92.1749 4.45913 92.576 4.52484 92.9659C4.58253 93.355 4.66708 93.737 4.7775 94.1073C4.88526 94.4768 5.01438 94.8357 5.16379 95.181C5.23792 95.3536 5.31935 95.5208 5.40183 95.688C5.48431 95.8553 5.57827 96.0132 5.67746 96.1659C5.63987 95.9721 5.58871 95.7863 5.53964 95.6018C5.49057 95.4173 5.43524 95.2328 5.38617 95.0523C5.28177 94.6873 5.17736 94.329 5.07296 93.9679C4.96856 93.6069 4.86415 93.2499 4.75975 92.8876C4.65534 92.5252 4.56451 92.1615 4.48412 91.7793Z" fill="#7C2F13"/>
<path d="M16.2953 55.5227C16.2953 55.5227 17.9261 73.9091 17.9773 75.5297C18.0284 77.1502 17.2893 93.9944 17.2893 93.9944C17.2893 93.9944 15.3056 95.0097 13.8826 94.3182C13.8826 94.3182 12.7613 81.4041 12.9314 78.1258L12.5577 71.8983C12.5577 71.8983 12.2518 77.0812 11.9459 77.6865C11.64 78.2917 5.69417 92.5025 5.69417 92.5025C5.69417 92.5025 2.29688 90.5581 2.29688 89.9967C2.29688 89.9967 4.26697 79.6296 6.78102 76.7362L6.81547 64.7073C6.25178 62.8957 6.04186 60.9374 6.20366 59.0001C6.31149 57.7703 6.56933 56.5694 6.9679 55.4404C6.9679 55.4404 14.2574 56.8194 16.2953 55.5227Z" fill="#FFC065"/>
<path d="M12.6757 69.893C12.9482 65.9112 13.5109 62.0927 13.6947 62.1179C13.8356 62.1365 13.6947 64.1181 13.6435 68.6613C13.6059 72.3683 13.6634 74.8569 13.7479 78.3807C13.9077 85.2559 14.1238 86.4345 14.3566 87.3861C14.9641 89.8233 15.9631 92.0736 17.2903 93.9945C16.6222 94.3781 15.5384 94.8174 14.3284 94.4776C14.1778 94.4359 14.0292 94.3828 13.8836 94.3183C13.8836 94.3183 12.7623 81.4042 12.9325 78.1259L12.5713 72.1015C12.5838 71.5003 12.612 70.8366 12.6757 69.893Z" fill="#FFAA39"/>
<path d="M4.82444 85.9287C5.24205 83.0804 6.50951 82.5203 7.5525 79.1876C8.17893 77.1808 8.25201 74.878 8.39713 70.2724C8.61951 63.2088 8.03381 62.6686 8.76568 60.9512C10.694 56.4292 16.3746 56.2793 16.2953 55.5227C14.0944 56.4837 7.98369 55.609 7.0806 55.463L7.00752 55.451H6.97202C6.57186 56.5788 6.31226 57.7788 6.20256 59.0081C6.04076 60.9454 6.25069 62.9037 6.81437 64.7153L6.77992 76.7441C4.26587 79.6375 2.29578 90.0047 2.29578 90.0047C2.37408 90.1374 2.45865 90.2608 2.54948 90.3856C3.23228 91.0585 5.09693 92.1628 5.57719 92.4428H5.58658H5.59598L5.62103 92.4561L5.63565 92.4654H5.64505L5.65967 92.4734H5.66489L5.69203 92.4893C5.08962 90.9271 4.43605 88.5553 4.82444 85.9287Z" fill="#FFAA39"/>
<path d="M11.5377 57.4314C11.5377 57.4314 9.97161 60.3513 8.30115 60.6168" stroke="white" stroke-width="3" stroke-miterlimit="10" stroke-linecap="round"/>
<path d="M9.91944 59.6412C9.91944 59.6412 9.71063 73.6955 8.9798 76.6154C8.24898 79.5354 5.81428 80.2362 3.5863 91.2338" stroke="white" stroke-width="3" stroke-miterlimit="10"/>
<path d="M18.8438 47.0549L20.2157 51.7733C20.2607 51.928 20.3377 52.0643 20.4386 52.168C20.5395 52.2718 20.6605 52.339 20.7889 52.3626L25.9349 53.3076C26.1283 53.3436 26.3256 53.3261 26.5132 53.2562C26.7007 53.1863 26.8742 53.0658 27.0218 52.9028C27.5918 52.275 28.5075 51.2995 28.6996 51.2995C28.9825 51.2995 29.4868 51.5225 28.3216 52.8125C28.3216 52.8125 28.497 53.001 29.0524 53.001C29.6079 53.001 31.7523 52.9214 31.7993 53.1417C31.8463 53.362 32.3819 53.8226 29.469 53.9022C29.469 53.9022 29.3427 54.242 29.5953 54.242C29.848 54.242 32.2409 54.2221 32.0039 54.6229C31.7669 55.0237 31.4214 54.9428 29.516 54.9839C29.516 54.9839 29.374 55.2494 29.469 55.2839C29.564 55.3184 31.8317 55.4033 31.8317 55.6436C31.8317 55.8838 32.2409 56.1851 28.9961 55.9847C28.9961 55.9847 28.9491 56.1174 29.28 56.2501C29.611 56.3828 31.0549 56.8301 30.6811 57.0465C30.3074 57.2628 30.2562 57.1672 28.5711 56.5859L27.1022 56.286C26.8517 56.234 26.5965 56.2304 26.3453 56.2753C24.8084 56.5501 19.0527 57.1739 17.6234 55.2865C16.2839 53.5186 15.5635 47.1969 15.5635 47.1969L18.8438 47.0549Z" fill="#EA9D7D"/>
<path d="M31.8369 55.6435C31.8369 55.4033 29.5682 55.3236 29.4743 55.2838C29.3803 55.244 29.5212 54.9839 29.5212 54.9839C30.9756 54.9533 31.5216 54.9918 31.8035 54.8339C31.1113 54.5618 29.8115 54.8843 27.5574 55.1843C23.4627 55.7298 22.2662 55.3993 21.7943 55.248C20.4966 54.8326 19.2584 54.3866 18.4868 53.0182C17.5472 51.3512 17.9408 49.4081 17.9752 47.092L15.5687 47.1956C15.5687 47.1956 16.2891 53.5173 17.6286 55.2852C19.0569 57.1712 24.8011 56.55 26.3453 56.274C26.5983 56.229 26.8552 56.2326 27.1074 56.2846L28.5764 56.5845C30.2615 57.1659 30.3084 57.2654 30.6864 57.0451C31.0643 56.8248 29.6162 56.3642 29.2853 56.2487C28.9543 56.1333 29.0013 55.9833 29.0013 55.9833C32.2462 56.185 31.8369 55.8837 31.8369 55.6435Z" fill="#D18165"/>
<path d="M28.3247 52.8125C28.3247 52.8125 28.2537 55.033 26.647 54.883" stroke="#2F170B" stroke-width="2" stroke-miterlimit="10"/>
<path d="M25.795 53.281V56.2248" stroke="#2F170B" stroke-width="6" stroke-linecap="round" stroke-linejoin="round"/>
<path d="M20.8954 51.8105C20.7773 51.7618 20.6701 51.678 20.5825 51.566C20.495 51.4541 20.4298 51.3172 20.3922 51.1668L18.1558 42.3738C17.9133 41.3787 17.4403 40.4998 16.7986 39.852C16.6352 39.6856 16.4581 39.5423 16.2703 39.4246C16.2541 39.4145 16.236 39.4099 16.2179 39.4113C16.1999 39.4127 16.1824 39.42 16.1672 39.4326C16.152 39.4452 16.1397 39.4626 16.1314 39.483C16.1232 39.5035 16.1192 39.5264 16.12 39.5494L16.3194 47.3536L16.4843 52.9612C16.5135 53.967 16.8484 54.9192 17.4185 55.6175C17.9887 56.3157 18.7496 56.7057 19.5413 56.7054H25.4297L25.2793 52.9466C25.4015 52.9506 22.0866 52.2949 20.8954 51.8105Z" fill="#25BEEF"/>
<path d="M25.3826 55.4139C20.8181 56.0444 19.1894 54.8512 18.5619 53.6035C17.8488 52.186 17.8749 49.5979 17.9041 46.7709C17.9041 46.7709 17.9292 44.3752 17.2339 42.379C17.1096 42.022 16.7661 41.0517 16.3819 41.073C16.3001 41.083 16.2237 41.1301 16.1669 41.2057L16.3235 47.3548L16.4884 52.9625C16.5176 53.9682 16.8525 54.9204 17.4226 55.6187C17.9928 56.317 18.7537 56.707 19.5454 56.7067H25.4337L25.3826 55.4139Z" fill="#1A87C4"/>
<path d="M16.1533 56.4041H6.88437C6.84296 56.4041 6.80207 56.3924 6.76461 56.37C6.72714 56.3475 6.69402 56.3149 6.66761 56.2743C6.6412 56.2338 6.62214 56.1863 6.61178 56.1354C6.60143 56.0844 6.60004 56.0311 6.6077 55.9794L9.10087 39.0955L11.0678 38.542C11.7705 40.436 13.9348 40.5222 14.6259 38.6216L16.1189 39.3437C16.3764 39.4231 16.604 39.6145 16.7623 39.8847C16.9205 40.155 16.9995 40.4871 16.9854 40.8235L16.9698 41.4221C16.8466 46.2338 16.7227 51.0451 16.5981 55.856C16.5971 55.8958 16.5887 56.0896 16.1533 56.4041Z" fill="#25BEEF"/>
<path d="M1.08682 65.1865C1.1346 64.9473 1.16018 64.7019 1.16303 64.4552C1.18704 62.39 1.34261 54.5074 2.27806 50.9172C2.57666 49.7718 5.31308 43.9438 5.31308 43.9438L9.22091 44.995L5.77559 52.267C5.62296 52.5895 5.51061 52.94 5.44254 53.3063L3.34298 64.6742C3.31442 64.83 3.31356 64.9921 3.34047 65.1484C3.36738 65.3048 3.42139 65.4515 3.49854 65.578C3.94017 66.2987 4.81508 67.764 4.8015 68.0321C4.78167 68.3918 4.57286 69.0156 3.63845 67.4521C3.63845 67.4521 3.47871 67.6618 3.44217 68.3692C3.40562 69.0766 3.32419 71.7988 3.14879 71.844C2.97339 71.8891 2.57562 72.5381 2.70716 68.8377C2.70716 68.8377 2.44824 68.6546 2.43154 68.9705C2.41483 69.2864 2.27076 72.3284 1.97216 72.0019C1.67357 71.6754 1.76335 71.2414 1.85523 68.8165C1.85523 68.8165 1.65999 68.6187 1.62241 68.7355C1.58482 68.8523 1.3708 71.7245 1.18183 71.7086C0.992855 71.6927 0.730801 72.1917 1.10457 68.0905C1.10457 68.0905 1.00016 68.0202 0.881142 68.4316C0.762122 68.8431 0.306922 70.6508 0.158669 70.157C0.0104154 69.6633 0.0928941 69.6089 0.66085 67.5105L1.08682 65.1865Z" fill="#EA9D7D"/>
<path d="M9.21774 44.9937L8.29585 44.7455C7.60679 45.8577 6.75068 46.6647 5.63565 48.7405C4.76596 50.3584 4.20323 52.0042 3.9537 52.6997C3.26881 54.6056 3.40767 55.5785 2.95143 60.2809C2.67684 63.1053 2.54007 64.5175 2.396 65.2555C2.396 65.2555 1.36449 70.5446 1.86771 71.8546C1.89128 71.9156 1.92735 71.9674 1.97212 72.0045C2.27071 72.331 2.41479 69.293 2.4315 68.9731C2.4482 68.6532 2.70712 68.8404 2.70712 68.8404C2.57557 72.5407 2.97231 71.893 3.14875 71.8466C3.32519 71.8001 3.40454 69.0912 3.44108 68.3772C3.47762 67.6697 3.63736 67.46 3.63736 67.46C4.57177 69.0235 4.78058 68.3997 4.80042 68.04C4.81399 67.7746 3.93908 66.3067 3.49746 65.586C3.4203 65.4595 3.3663 65.3127 3.33939 65.1564C3.31248 65 3.31333 64.838 3.3419 64.6821L5.44146 53.3142C5.50952 52.948 5.62188 52.5974 5.7745 52.275L9.21774 44.9937Z" fill="#D18165"/>
<path d="M1.17241 64.3543C1.10702 64.3548 1.04396 64.3234 0.996192 64.2667C0.948425 64.2099 0.919577 64.132 0.915575 64.049C0.836228 62.4563 1.01998 55.0888 1.72888 51.4057C2.2509 48.7153 5.98542 41.7459 5.98542 41.7459C5.98542 41.7459 7.70391 39.4591 9.10083 39.0914L9.89639 44.3659L5.87684 52.8086C5.83821 52.8842 4.23561 62.1113 3.85245 64.0119C3.83274 64.1089 3.78818 64.1948 3.7258 64.2561C3.66341 64.3174 3.58676 64.3506 3.50792 64.3503L1.17241 64.3543Z" fill="#25BEEF"/>
<path d="M7.08173 49.8063L9.87662 44.4071L9.87036 44.3553C9.85852 44.257 9.8268 44.1642 9.7783 44.0861C9.7298 44.008 9.66619 43.9473 9.59369 43.9098C9.52119 43.8724 9.44228 43.8595 9.36468 43.8724C9.28709 43.8854 9.21346 43.9237 9.15102 43.9837C8.61751 44.4986 7.93576 45.3879 7.31142 46.2015C6.65994 47.051 5.96044 47.9628 5.63574 48.7405L6.88859 49.8541C6.91924 49.8801 6.95672 49.8896 6.99288 49.8807C7.02905 49.8717 7.06097 49.845 7.08173 49.8063Z" fill="#1A87C4"/>
<path d="M16.5981 55.8559C15.9842 55.5811 14.3889 55.5705 11.972 54.603C9.70431 53.6951 9.24703 52.9572 9.04031 52.4289C8.55483 51.1866 8.87222 49.6125 9.00272 48.9648C9.23659 47.8021 9.3034 47.3575 9.77322 45.8829C9.93087 45.3879 9.98203 44.1894 9.77322 44.0911C9.52996 43.977 8.57258 45.3706 7.8689 47.2248L6.62023 55.9713C6.61117 56.0237 6.61147 56.078 6.62111 56.1302C6.63075 56.1824 6.64949 56.2312 6.67594 56.273C6.70239 56.3148 6.73588 56.3485 6.77395 56.3716C6.81201 56.3948 6.85367 56.4067 6.89585 56.4067H16.1533C16.2689 56.4064 16.3799 56.3491 16.4628 56.2469C16.5458 56.1446 16.5943 56.0054 16.5981 55.8585V55.8559Z" fill="#1A87C4"/>
<path d="M3.50797 64.3543C3.5868 64.3545 3.66346 64.3214 3.72584 64.2601C3.78823 64.1988 3.83279 64.1129 3.8525 64.0159C4.23566 62.1152 5.83617 52.8882 5.87689 52.8126L8.48698 47.3217L8.75947 45.6467L5.62736 48.7405C5.62736 48.7405 4.36512 50.7128 4.02685 53.2811C3.68858 55.8493 2.52448 64.345 2.52344 64.3543H3.50797Z" fill="#1A87C4"/>
</svg>
